<svg width="106" height="91" viewBox="0 0 106 91" fill="none" xmlns="http://www.w3.org/2000/svg">
<path d="M1.52791 43.7965C1.52791 43.7965 1.52791 43.7843 1.52791 43.7722C1.55238 40.2461 2.07849 36.8173 3.06954 33.5343C2.97166 33.8262 2.86154 34.1058 2.7759 34.3976C3.37542 32.1361 4.26858 29.838 5.44316 27.5521C13.1758 12.0252 31.553 1.10646 53.0012 1.10646C70.1427 1.10646 85.3265 8.09785 94.6741 18.8342C94.8699 19.0652 95.0657 19.2962 95.2614 19.5151C95.4327 19.7218 95.604 19.9163 95.7753 20.123C99.4458 24.5489 102.015 29.3638 103.312 34.118C102.982 33.0723 102.554 32.0145 102.052 30.9688C102.982 33.4006 103.643 35.9296 104.046 38.5195C104.071 38.6411 104.083 38.7627 104.107 38.8964C104.315 40.392 104.438 41.9118 104.462 43.4439C104.511 41.7903 104.462 40.0394 104.279 38.1547C103.251 21.0836 84.4823 0.462039 54.2981 0C54.1758 0 54.0412 0 53.9066 0C53.7598 0 53.613 0 53.4661 0C53.3683 0 53.2581 0 53.1603 0C53.1113 0 53.0501 0 52.989 0C51.484 0 49.9669 0.0486357 48.4008 0.158066C21.1286 2.18861 4.86811 19.9893 2.21308 35.2609C1.76038 37.7049 1.55238 39.9786 1.51568 42.0821C1.51568 42.2401 1.51568 42.3982 1.51568 42.5563C1.51568 42.763 1.51568 42.9575 1.51568 43.1642C1.50344 43.3831 1.50344 43.5898 1.51568 43.7965H1.52791Z" fill="#38C6F4"/>
<path d="M1.52791 46.3134C1.52791 46.3134 1.52791 46.3134 1.52791 46.3013C1.55238 43.833 2.0785 41.4377 3.06955 39.1396C2.97167 39.3463 2.86155 39.5409 2.7759 39.7476C3.37542 38.1669 4.26859 36.5498 5.44316 34.957C13.1758 24.099 31.553 16.4511 53.0012 16.4511C70.1427 16.4511 85.3265 21.339 94.6741 28.8532C94.8699 29.0113 95.0657 29.1693 95.2614 29.3274C95.4327 29.4733 95.604 29.607 95.7753 29.7529C99.4459 32.8413 102.015 36.2215 103.312 39.5409C102.982 38.8114 102.554 38.0697 102.052 37.328C102.982 39.0302 103.643 40.7933 104.046 42.6049C104.071 42.6901 104.083 42.7752 104.107 42.8724C104.315 43.9181 104.438 44.9759 104.462 46.0581C104.511 44.903 104.462 43.6749 104.279 42.3618C103.263 30.4217 84.4945 16.0012 54.3104 15.6851C54.188 15.6851 54.0534 15.6851 53.9188 15.6851C53.772 15.6851 53.6252 15.6851 53.4784 15.6851C53.3805 15.6851 53.2704 15.6851 53.1725 15.6851C53.1236 15.6851 53.0624 15.6851 53.0012 15.6851C51.4963 15.6851 49.9791 15.7215 48.413 15.7945C21.1409 17.2171 4.88035 29.6678 2.22532 40.3434C1.77262 42.0578 1.56462 43.6384 1.52791 45.1097C1.52791 45.2191 1.52791 45.3285 1.52791 45.438C1.52791 45.5839 1.52791 45.7176 1.52791 45.8635C1.51568 46.0094 1.51568 46.1554 1.52791 46.3013V46.3134Z" fill="#38C6F4"/>
<path d="M1.52791 48.3194C1.55238 47.0792 2.0785 45.8876 3.06955 44.7325C2.97167 44.8298 2.86155 44.9392 2.7759 45.0365C3.37542 44.2461 4.26859 43.4436 5.44316 42.6412C13.1758 37.2061 31.553 33.3882 53.0012 33.3882C70.1427 33.3882 85.3265 35.8322 94.6741 39.5893C94.8699 39.6744 95.0657 39.7473 95.2614 39.8324C95.4327 39.9054 95.604 39.9783 95.7753 40.0513C99.4459 41.5955 102.015 43.2856 103.312 44.9514C102.982 44.5866 102.554 44.2218 102.052 43.8449C102.982 44.696 103.643 45.5715 104.046 46.4834C104.071 46.532 104.083 46.5685 104.107 46.6171C104.315 47.14 104.438 47.675 104.462 48.2099C104.511 47.6385 104.462 47.0184 104.279 46.3618C103.263 40.3918 84.4945 33.1815 54.3104 33.0234C54.188 33.0234 54.0534 33.0234 53.9188 33.0234C53.772 33.0234 53.6252 33.0234 53.4784 33.0234C53.3805 33.0234 53.2704 33.0234 53.1725 33.0234C53.1236 33.0234 53.0624 33.0234 53.0012 33.0234C51.4963 33.0234 49.9791 33.0356 48.413 33.0721C21.1409 33.7773 4.88035 40.0148 2.22532 45.3526C1.77262 46.2037 1.56462 47.0062 1.52791 47.7357C1.52791 47.7965 1.52791 47.8452 1.52791 47.906C1.52791 47.9789 1.52791 48.0519 1.52791 48.1248C1.51568 48.1978 1.51568 48.2707 1.52791 48.3437V48.3194Z" fill="#38C6F4"/>
<path d="M11.7687 43.7965C11.7687 43.7965 11.7687 43.7843 11.7687 43.7722C11.781 40.2461 12.2092 36.8173 13.0045 33.5343C12.9188 33.8262 12.8332 34.1058 12.772 34.3976C13.2492 32.1361 13.9711 29.838 14.9132 27.5521C21.1041 12.0252 35.823 1.10646 53.0012 1.10646C66.729 1.10646 78.8908 8.09785 86.3787 18.8342C86.5378 19.0652 86.6968 19.2962 86.8436 19.5151C86.9782 19.7218 87.125 19.9163 87.2474 20.123C90.1838 24.5489 92.2393 29.3638 93.2916 34.118C93.0224 33.0723 92.6798 32.0145 92.2883 30.9688C93.0346 33.4006 93.573 35.9296 93.8788 38.5195C93.8911 38.6411 93.9156 38.7627 93.9278 38.8964C94.0991 40.392 94.197 41.9118 94.2092 43.4439C94.2459 41.7903 94.2092 40.0394 94.0624 38.1547C93.2549 21.0836 78.2178 0.462039 54.0289 0C53.9311 0 53.8209 0 53.7231 0C53.6129 0 53.4906 0 53.3682 0C53.2826 0 53.2092 0 53.1235 0C53.0746 0 53.0379 0 52.989 0C51.7899 0 50.5664 0.0486357 49.3184 0.158066C27.4664 2.18861 14.4482 19.9893 12.3193 35.2609C11.9645 37.7049 11.7932 39.9786 11.7565 42.0821C11.7565 42.2401 11.7565 42.3982 11.7565 42.5563C11.7565 42.763 11.7565 42.9575 11.7565 43.1642C11.7443 43.3831 11.7443 43.5898 11.7565 43.7965H11.7687Z" fill="#38C6F4"/>
<path d="M28.2495 43.7965C28.2495 43.7965 28.2495 43.7843 28.2495 43.7722C28.2495 40.2461 28.5187 36.8173 28.9836 33.5343C28.9346 33.8262 28.8857 34.1058 28.8368 34.3976C29.1304 32.1361 29.5586 29.838 30.1215 27.5521C33.8409 12.0252 42.6747 1.0943 52.989 1.0943C61.2355 1.0943 68.5276 8.08569 73.0301 18.822C73.128 19.053 73.2137 19.2841 73.3116 19.5029C73.3972 19.7096 73.4706 19.9042 73.5563 20.1109C75.3181 24.5367 76.5539 29.3517 77.1779 34.1058C77.0188 33.0601 76.8108 32.0023 76.5661 30.9566C77.0188 33.3884 77.3369 35.9175 77.5204 38.5073C77.5204 38.6289 77.5449 38.7505 77.5449 38.8843C77.655 40.3798 77.704 41.8997 77.7162 43.4317C77.7407 41.7781 77.7162 40.0272 77.6306 38.1426C77.1656 21.0836 68.1361 0.462039 53.613 0C53.5518 0 53.4906 0 53.4294 0C53.356 0 53.2948 0 53.2214 0C53.1725 0 53.1236 0 53.0746 0C53.0501 0 53.0257 0 52.989 0C52.2671 0 51.533 0.0486357 50.7866 0.158066C37.6705 2.18861 29.8523 19.9893 28.5798 35.2609C28.3596 37.7049 28.2617 39.9786 28.2495 42.0821C28.2495 42.2401 28.2495 42.3982 28.2495 42.5563C28.2495 42.763 28.2495 42.9575 28.2495 43.1642C28.2495 43.3831 28.2495 43.5898 28.2495 43.7965Z" fill="#38C6F4"/>
<path d="M41.5735 43.7965V43.7722C41.5735 40.2461 41.6959 36.8173 41.9161 33.5343C41.8917 33.8262 41.8672 34.1058 41.8427 34.3976C41.9773 32.1361 42.1731 29.838 42.4422 27.5521C44.1552 12.0252 48.2417 1.0943 53.0012 1.0943C56.8063 1.0943 60.171 8.08569 62.251 18.822C62.2999 19.053 62.3366 19.2841 62.3855 19.5029C62.4223 19.7096 62.459 19.9042 62.4957 20.1109C63.3032 24.5367 63.8782 29.3517 64.1719 34.1058C64.0985 33.0601 64.0006 32.0023 63.8905 30.9566C64.0985 33.3884 64.2453 35.9175 64.3309 38.5073C64.3309 38.6289 64.3309 38.7505 64.3309 38.8843C64.3799 40.3798 64.4043 41.8997 64.4043 43.4317C64.4043 41.7781 64.4043 40.0272 64.3676 38.1426C64.1474 21.0836 59.9875 0.462039 53.2826 0C53.2581 0 53.2214 0 53.1969 0C53.1602 0 53.1358 0 53.0991 0C53.0746 0 53.0501 0 53.0257 0C53.0257 0 53.0012 0 52.9889 0C52.6586 0 52.316 0.0486357 51.9734 0.158066C45.917 2.18861 42.3077 19.9893 41.7204 35.2609C41.6225 37.7049 41.5735 39.9786 41.5613 42.0821C41.5613 42.2401 41.5613 42.3982 41.5613 42.5563C41.5613 42.763 41.5613 42.9575 41.5613 43.1642C41.5613 43.3831 41.5613 43.5898 41.5613 43.7965H41.5735Z" fill="#38C6F4"/>
<path d="M80.4202 34.1544C80.9585 36.7929 81.4112 41.997 81.2766 44.6719C76.1134 52.1618 52.9889 55.9189 37.3402 51.0918C31.92 49.4139 27.185 47.3834 22.9639 45.3771C18.7428 43.3709 15.3903 41.8389 12.564 42.8967C9.74991 43.8937 7.60876 47.6873 8.18381 54.3869C8.78334 60.9527 12.564 69.5126 21.5813 76.5405C30.4763 83.5319 43.6535 87.7753 57.8463 86.5959C75.1835 85.1855 88.0304 76.2608 93.9033 66.5458C99.8863 56.6242 98.9687 48.6236 96.2035 45.6203C90.9302 60.1502 79.0498 69.1722 65.5545 72.6983C65.1874 71.4702 64.8204 70.23 64.4533 69.002C81.1665 64.6369 95.5183 51.4201 92.3127 26.9077C100.412 29.3395 107.754 37.3401 104.78 53.8762C102.076 69.7801 85.51 88.3103 57.7362 90.426C23.49 92.8578 1.94388 69.768 0.842721 50.873C-0.588792 35.8202 5.4309 27.9169 10.2393 28.2574C14.0934 28.2574 17.4703 32.0145 21.7159 35.9904C25.9615 39.9907 30.6231 43.5533 36.0677 45.7905C41.5001 47.9913 47.0794 49.0127 53.2214 48.8303C58.1889 48.6114 62.8505 47.5901 67.3653 45.5474C71.8433 43.456 76.5416 40.319 80.4569 34.1909L80.4202 34.1544Z" fill="#6D6E71"/>
</svg>
