<svg width="696" height="510" viewBox="0 0 696 510" fill="none" xmlns="http://www.w3.org/2000/svg">
<path d="M182.774 212.441C154.896 243.586 146.473 287.618 161.038 326.797C161.15 327.096 161.262 327.394 161.374 327.693C184.018 388.048 242.229 411.169 302.961 399.241C333.767 393.19 362.748 380.355 391.795 368.444C423.721 355.351 459.055 340.562 473.55 309.25C482.566 289.774 481.641 267.276 479.207 245.954C476.217 219.748 471.12 193.467 460.018 169.541C437.527 121.072 381.755 94.1774 328.948 97.5035C299.473 99.3574 271.931 112.828 252.236 134.833L182.774 212.441Z" fill="url(#paint0_linear_72_8770)"/>
<path d="M522.011 74.0177V419.459C522.011 427.198 515.736 433.477 507.993 433.477H317.817C310.078 433.477 303.799 427.202 303.799 419.459V74.0177C303.799 66.2789 310.074 60 317.817 60H507.993C515.736 60 522.011 66.2748 522.011 74.0177Z" fill="#003BA5"/>
<path d="M509.544 89.7564V397.387C509.544 403.733 504.397 408.875 498.052 408.875H325.651C319.305 408.875 314.159 403.733 314.159 397.387V89.7564C314.159 83.4111 319.305 78.2686 325.651 78.2686H498.052C504.402 78.2686 509.544 83.4111 509.544 89.7564Z" fill="url(#paint1_linear_72_8770)"/>
<path d="M444.731 73.4742H381.087C380.681 73.4742 380.353 73.1466 380.353 72.7401V69.1403C380.353 68.7339 380.681 68.4062 381.087 68.4062H444.731C445.137 68.4062 445.465 68.7339 445.465 69.1403V72.7401C445.465 73.1466 445.133 73.4742 444.731 73.4742Z" fill="#002C7C"/>
<path d="M455.465 72.7645C456.471 71.7587 456.471 70.128 455.465 69.1223C454.459 68.1165 452.829 68.1165 451.823 69.1223C450.817 70.128 450.817 71.7587 451.823 72.7645C452.829 73.7702 454.459 73.7702 455.465 72.7645Z" fill="#002C7C"/>
<path d="M372.17 73.5161C373.593 73.5161 374.746 72.3631 374.746 70.9407C374.746 69.5183 373.593 68.3652 372.17 68.3652C370.748 68.3652 369.595 69.5183 369.595 70.9407C369.595 72.3631 370.748 73.5161 372.17 73.5161Z" fill="#002C7C"/>
<path d="M371.042 214.921C371.042 211.835 371.366 208.679 372.009 205.457C372.651 202.234 373.585 199.045 374.808 195.889C376.031 192.733 377.52 189.652 379.279 186.645C381.037 183.638 383.024 180.806 385.238 178.151C387.453 175.497 389.883 173.05 392.529 170.819C395.175 168.588 397.991 166.663 400.986 165.05C403.98 163.437 407.119 162.184 410.408 161.293C413.697 160.397 417.114 159.953 420.656 159.953C423.265 159.953 425.865 160.185 428.457 160.646C431.049 161.106 433.537 161.815 435.914 162.777C438.29 163.74 440.496 164.967 442.524 166.468C444.552 167.97 446.319 169.77 447.825 171.868C449.33 173.967 450.512 176.372 451.371 179.093C452.229 181.813 452.66 184.878 452.66 188.287C452.66 188.988 452.648 189.706 452.619 190.435C452.59 191.165 452.523 191.908 452.416 192.663C452.175 194.5 451.682 196.49 450.943 198.639C450.205 200.787 449.251 202.919 448.082 205.038C446.912 207.157 445.548 209.202 443.988 211.176C442.429 213.146 440.708 214.883 438.825 216.381C436.942 217.878 434.914 219.081 432.737 219.985C430.56 220.889 428.287 221.341 425.923 221.341C425.334 221.341 424.737 221.241 424.131 221.042C423.526 220.843 422.983 220.478 422.501 219.947C422.02 219.416 421.631 218.687 421.336 217.758C421.042 216.829 420.892 215.622 420.892 214.137C420.892 213.49 420.938 212.802 421.033 212.076C421.129 211.35 421.253 210.55 421.415 209.687C420.386 211.748 419.225 213.556 417.939 215.107C416.654 216.659 415.277 217.973 413.817 219.043C412.353 220.113 410.844 220.918 409.288 221.453C407.729 221.988 406.178 222.253 404.635 222.253C402.897 222.253 401.247 221.959 399.683 221.37C398.116 220.781 396.739 219.902 395.54 218.736C394.342 217.571 393.392 216.124 392.679 214.394C391.965 212.665 391.613 210.649 391.613 208.343C391.613 206 391.978 203.508 392.716 200.87C393.454 198.232 394.495 195.62 395.847 193.036C397.199 190.452 398.829 187.98 400.741 185.625C402.653 183.269 404.801 181.187 407.182 179.383C409.562 177.579 412.15 176.144 414.945 175.078C417.74 174.016 420.677 173.481 423.75 173.481C424.368 173.481 424.861 173.527 425.239 173.618C425.612 173.71 425.894 173.83 426.081 173.971C426.267 174.116 426.387 174.265 426.446 174.423C426.499 174.58 426.524 174.709 426.524 174.813C426.524 174.916 426.516 175.004 426.504 175.07C426.491 175.136 426.483 175.194 426.483 175.244V175.402C427.101 175.663 427.752 175.821 428.44 175.87C429.129 175.92 429.792 175.974 430.439 176.028C431.086 176.078 431.696 176.173 432.277 176.302C432.853 176.434 433.367 176.708 433.811 177.131C434.255 177.554 434.603 178.172 434.86 178.985C435.117 179.802 435.242 180.893 435.242 182.257C435.242 183.319 435.117 184.517 434.869 185.857C434.62 187.196 434.296 188.59 433.894 190.037C433.492 191.485 433.085 192.965 432.666 194.479C432.248 195.993 431.841 197.465 431.443 198.9C431.045 200.335 430.676 201.674 430.332 202.919C429.987 204.163 429.685 205.258 429.423 206.203C429.046 207.555 428.855 208.708 428.855 209.67C428.855 210.363 428.955 210.919 429.162 211.338C429.365 211.756 429.697 211.968 430.161 211.968C431.165 211.968 432.169 211.665 433.177 211.051C434.18 210.438 435.151 209.604 436.088 208.546C437.025 207.489 437.896 206.245 438.697 204.818C439.497 203.391 440.198 201.857 440.795 200.215C441.392 198.572 441.861 196.864 442.201 195.101C442.541 193.334 442.711 191.584 442.711 189.842C442.711 185.786 442.135 182.348 440.986 179.532C439.837 176.72 438.261 174.439 436.262 172.693C434.263 170.947 431.924 169.691 429.245 168.919C426.566 168.148 423.704 167.762 420.652 167.762C416.87 167.762 413.299 168.467 409.944 169.877C406.588 171.288 403.503 173.179 400.687 175.551C397.871 177.923 395.345 180.648 393.122 183.725C390.899 186.802 389.004 190.021 387.449 193.38C385.894 196.743 384.703 200.123 383.886 203.524C383.065 206.925 382.659 210.118 382.659 213.1C382.659 215.485 383.074 217.633 383.899 219.549C384.724 221.465 386.072 223.107 387.938 224.472C389.805 225.836 392.243 226.89 395.258 227.628C398.273 228.362 401.968 228.731 406.34 228.731C412.801 228.731 418.512 228.159 423.476 227.018C428.436 225.878 432.741 224.335 436.395 222.398C437.021 222.087 437.589 221.93 438.103 221.93C438.564 221.93 438.958 222.038 439.285 222.253C439.609 222.469 439.883 222.751 440.098 223.099C440.314 223.448 440.472 223.846 440.567 224.289C440.662 224.733 440.708 225.181 440.708 225.641C440.708 226.338 440.6 227.006 440.384 227.64C440.169 228.271 439.87 228.694 439.493 228.91C436.892 230.44 434.031 231.788 430.908 232.945C427.785 234.098 424.583 235.06 421.311 235.827C418.039 236.594 414.775 237.163 411.532 237.54C408.285 237.913 405.257 238.104 402.441 238.104C397.232 238.104 392.67 237.523 388.747 236.366C384.824 235.205 381.551 233.6 378.935 231.551C376.318 229.503 374.348 227.06 373.029 224.223C371.71 221.386 371.042 218.272 371.042 214.921ZM426.425 181.739C425.799 181.593 425.139 181.482 424.442 181.394C423.746 181.307 423.086 181.266 422.46 181.266C420.726 181.266 419.034 181.714 417.384 182.61C415.733 183.505 414.161 184.683 412.672 186.135C411.184 187.59 409.815 189.258 408.571 191.149C407.327 193.04 406.248 194.981 405.344 196.976C404.436 198.975 403.731 200.936 403.233 202.865C402.732 204.793 402.483 206.548 402.483 208.123C402.483 210.147 402.91 211.707 403.764 212.802C404.619 213.896 405.954 214.444 407.766 214.444C408.986 214.444 410.143 214.191 411.242 213.689C412.341 213.187 413.357 212.515 414.29 211.682C415.223 210.848 416.077 209.915 416.849 208.878C417.62 207.841 418.296 206.792 418.881 205.726C419.466 204.661 419.947 203.632 420.324 202.637C420.702 201.641 420.959 200.787 421.096 200.078L426.425 181.739Z" fill="#FFAEDF"/>
<path d="M386.093 256.588C386.01 256.393 385.823 256.285 385.674 256.343C385.276 256.505 384.878 256.675 384.488 256.849C383.613 257.239 382.75 257.666 381.917 258.123C381.776 258.201 381.738 258.413 381.834 258.604C381.929 258.79 382.12 258.882 382.261 258.807C383.082 258.355 383.936 257.932 384.799 257.55C385.185 257.38 385.579 257.21 385.973 257.053C386.118 256.982 386.172 256.779 386.093 256.588ZM392.032 254.755C391.969 254.556 391.787 254.423 391.634 254.461C390.257 254.788 388.909 255.178 387.627 255.618C387.619 255.618 387.615 255.622 387.611 255.626C387.474 255.688 387.42 255.879 387.49 256.07C387.565 256.265 387.752 256.385 387.901 256.331C389.17 255.895 390.505 255.51 391.866 255.186C392.019 255.149 392.094 254.958 392.032 254.755ZM380.544 259.354C380.448 259.184 380.274 259.101 380.141 259.159C380.133 259.164 380.121 259.168 380.112 259.176C378.922 259.922 377.778 260.744 376.703 261.619C376.579 261.722 376.567 261.946 376.683 262.121C376.795 262.295 376.99 262.357 377.114 262.253C378.176 261.391 379.308 260.578 380.482 259.844C380.618 259.757 380.647 259.541 380.544 259.354ZM398.228 253.722C398.178 253.519 398.008 253.37 397.846 253.391C396.415 253.552 395.014 253.764 393.678 254.021C393.662 254.025 393.645 254.029 393.628 254.038C393.504 254.091 393.446 254.261 393.496 254.44C393.554 254.639 393.732 254.78 393.89 254.747C395.213 254.49 396.602 254.282 398.02 254.12C398.186 254.104 398.277 253.926 398.228 253.722ZM375.538 263.116C375.439 262.975 375.285 262.917 375.165 262.971C375.144 262.979 375.123 262.996 375.103 263.012C374.049 263.987 373.058 265.04 372.15 266.139C372.042 266.268 372.063 266.5 372.195 266.658C372.328 266.815 372.519 266.836 372.627 266.707C373.518 265.625 374.497 264.588 375.534 263.626C375.658 263.514 375.658 263.286 375.538 263.116ZM404.585 253.345C404.548 253.142 404.386 252.98 404.22 252.984C402.756 253.013 401.322 253.08 399.957 253.187C399.932 253.187 399.907 253.196 399.882 253.204C399.766 253.258 399.704 253.407 399.741 253.577C399.787 253.78 399.957 253.934 400.119 253.921C401.475 253.814 402.897 253.747 404.353 253.718C404.519 253.714 404.623 253.548 404.585 253.345ZM371.246 267.898C371.146 267.786 371.013 267.752 370.914 267.798C370.877 267.815 370.848 267.84 370.818 267.877C369.952 269.088 369.164 270.374 368.475 271.697C368.396 271.85 368.45 272.082 368.6 272.215C368.749 272.348 368.936 272.327 369.014 272.173C369.69 270.871 370.466 269.61 371.32 268.42C371.416 268.279 371.382 268.047 371.246 267.898ZM411.039 253.478C411.01 253.274 410.852 253.104 410.686 253.096C409.197 253.021 407.741 252.98 406.369 252.972C406.336 252.972 406.302 252.98 406.273 252.992C406.166 253.042 406.103 253.179 406.128 253.337C406.161 253.54 406.323 253.706 406.489 253.706C407.858 253.714 409.301 253.756 410.786 253.83C410.956 253.838 411.068 253.681 411.039 253.478ZM417.541 253.975C417.521 253.772 417.367 253.594 417.201 253.581C416.878 253.548 416.554 253.519 416.231 253.49C415.066 253.386 413.929 253.295 412.855 253.221C412.814 253.216 412.776 253.225 412.747 253.237C412.644 253.283 412.581 253.411 412.598 253.565C412.623 253.768 412.78 253.942 412.946 253.95C414.016 254.021 415.148 254.112 416.31 254.216C416.633 254.245 416.953 254.274 417.276 254.307C417.446 254.332 417.562 254.179 417.541 253.975ZM367.891 273.696C367.795 273.621 367.691 273.604 367.604 273.642C367.555 273.666 367.509 273.708 367.48 273.77C366.978 274.927 366.534 276.138 366.161 277.362C366.107 277.536 366.194 277.764 366.356 277.864C366.518 277.967 366.692 277.905 366.746 277.731C367.111 276.528 367.546 275.342 368.04 274.206C368.11 274.044 368.044 273.816 367.891 273.696ZM423.754 254.386C422.323 254.17 420.851 253.979 419.383 253.809C419.337 253.805 419.296 253.809 419.263 253.826C419.163 253.872 419.101 253.992 419.113 254.141C419.134 254.344 419.283 254.523 419.453 254.543C420.913 254.709 422.377 254.904 423.804 255.116C423.974 255.141 424.098 255 424.086 254.796C424.069 254.597 423.92 254.411 423.754 254.386ZM430.332 255.56C428.897 255.261 427.42 254.983 425.944 254.734C425.894 254.726 425.848 254.73 425.807 254.751C425.712 254.792 425.649 254.904 425.658 255.049C425.67 255.249 425.815 255.435 425.985 255.464C427.453 255.713 428.922 255.987 430.352 256.285C430.522 256.323 430.655 256.186 430.651 255.987C430.643 255.788 430.497 255.597 430.332 255.56ZM436.917 257.152C435.482 256.758 434.006 256.385 432.525 256.045C432.472 256.032 432.418 256.036 432.376 256.057C432.285 256.099 432.223 256.202 432.223 256.335C432.227 256.534 432.364 256.729 432.534 256.766C434.006 257.106 435.478 257.476 436.901 257.87C437.071 257.915 437.212 257.795 437.216 257.596C437.22 257.397 437.087 257.198 436.917 257.152ZM443.495 259.217C442.068 258.711 440.592 258.23 439.111 257.787C439.049 257.766 438.991 257.77 438.941 257.795C438.854 257.832 438.796 257.928 438.792 258.052C438.784 258.247 438.916 258.45 439.082 258.5C440.555 258.944 442.019 259.421 443.437 259.922C443.607 259.981 443.756 259.873 443.769 259.678C443.785 259.483 443.661 259.276 443.495 259.217ZM450.027 261.818C448.613 261.187 447.149 260.582 445.676 260.018C445.606 259.993 445.54 259.993 445.486 260.018C445.407 260.055 445.349 260.138 445.336 260.25C445.316 260.441 445.436 260.652 445.606 260.715C447.066 261.274 448.521 261.876 449.923 262.502C450.089 262.577 450.247 262.485 450.276 262.295C450.305 262.108 450.193 261.892 450.027 261.818ZM456.468 265.032C455.078 264.26 453.639 263.514 452.183 262.817C452.105 262.78 452.03 262.78 451.968 262.805C451.893 262.838 451.839 262.908 451.823 263.008C451.789 263.195 451.897 263.41 452.063 263.489C453.506 264.182 454.933 264.92 456.31 265.683C456.472 265.774 456.642 265.7 456.683 265.517C456.729 265.343 456.629 265.123 456.468 265.032ZM462.746 268.926C461.399 267.997 459.997 267.101 458.578 266.251C458.496 266.201 458.404 266.193 458.334 266.226C458.267 266.255 458.218 266.313 458.197 266.4C458.147 266.579 458.238 266.803 458.404 266.898C459.81 267.736 461.2 268.628 462.531 269.544C462.688 269.652 462.867 269.602 462.925 269.432C462.987 269.262 462.904 269.034 462.746 268.926ZM468.777 273.546C467.495 272.455 466.151 271.39 464.791 270.382C464.7 270.315 464.596 270.299 464.517 270.336C464.463 270.361 464.418 270.407 464.389 270.477C464.322 270.643 464.397 270.871 464.551 270.987C465.898 271.983 467.226 273.036 468.495 274.119C468.644 274.247 468.831 274.222 468.909 274.065C468.984 273.907 468.926 273.675 468.777 273.546ZM474.438 278.917C473.243 277.656 471.991 276.424 470.709 275.255C470.61 275.164 470.494 275.143 470.402 275.18C470.357 275.201 470.319 275.234 470.29 275.284C470.207 275.437 470.257 275.67 470.406 275.802C471.671 276.959 472.911 278.179 474.089 279.423C474.23 279.568 474.421 279.576 474.516 279.435C474.612 279.298 474.579 279.066 474.438 278.917ZM479.613 285.013C479.12 284.362 478.614 283.715 478.104 283.089C477.494 282.338 476.864 281.596 476.229 280.874C476.126 280.758 475.993 280.721 475.889 280.767C475.856 280.783 475.827 280.804 475.802 280.837C475.698 280.97 475.727 281.202 475.86 281.355C476.486 282.069 477.113 282.803 477.714 283.541C478.216 284.159 478.718 284.798 479.203 285.441C479.327 285.606 479.522 285.644 479.638 285.523C479.746 285.407 479.738 285.179 479.613 285.013ZM484.138 291.773C483.209 290.206 482.222 288.667 481.198 287.199C481.098 287.054 480.941 286.996 480.824 287.05C480.804 287.058 480.783 287.07 480.762 287.091C480.642 287.203 480.642 287.427 480.758 287.601C481.766 289.049 482.745 290.567 483.661 292.113C483.769 292.292 483.96 292.362 484.092 292.271C484.225 292.176 484.246 291.956 484.138 291.773ZM487.941 299.052C487.178 297.389 486.353 295.738 485.49 294.15C485.395 293.976 485.22 293.897 485.088 293.955C485.079 293.959 485.071 293.963 485.059 293.967C484.922 294.054 484.893 294.27 484.992 294.457C485.847 296.024 486.66 297.65 487.414 299.292C487.501 299.483 487.688 299.583 487.833 299.516C487.833 299.516 487.833 299.516 487.837 299.516C487.983 299.454 488.028 299.243 487.941 299.052ZM490.981 306.683C490.392 304.958 489.741 303.236 489.04 301.561C488.957 301.366 488.775 301.258 488.625 301.316C488.621 301.316 488.621 301.32 488.617 301.32C488.476 301.383 488.426 301.586 488.505 301.777C489.198 303.431 489.84 305.132 490.421 306.836C490.487 307.035 490.67 307.164 490.823 307.122C490.977 307.077 491.047 306.882 490.981 306.683ZM493.229 314.529C492.818 312.779 492.345 311.012 491.819 309.283C491.757 309.084 491.578 308.947 491.421 308.98C491.404 308.984 491.392 308.989 491.375 308.993C491.246 309.051 491.188 309.221 491.246 309.399C491.769 311.108 492.238 312.854 492.64 314.583C492.686 314.787 492.856 314.936 493.021 314.919C493.183 314.907 493.274 314.728 493.229 314.529ZM494.66 322.451C494.436 320.7 494.145 318.921 493.797 317.167C493.756 316.964 493.59 316.806 493.428 316.81C493.399 316.81 493.37 316.819 493.345 316.831C493.233 316.881 493.171 317.026 493.204 317.192C493.548 318.925 493.834 320.684 494.058 322.413C494.083 322.617 494.241 322.791 494.407 322.799C494.573 322.807 494.684 322.654 494.66 322.451ZM463.63 337.824C463.547 337.634 463.356 337.526 463.211 337.592L463.128 337.63C461.826 338.21 460.698 339.04 459.769 340.093C459.661 340.217 459.673 340.45 459.806 340.607C459.935 340.769 460.13 340.798 460.237 340.674C461.117 339.67 462.195 338.882 463.439 338.326L463.518 338.293C463.667 338.227 463.717 338.019 463.63 337.824ZM469.585 336.904C468.109 336.638 466.641 336.655 465.231 336.954C465.214 336.958 465.198 336.962 465.185 336.97C465.057 337.028 464.998 337.198 465.057 337.377C465.119 337.576 465.293 337.713 465.455 337.679C466.807 337.393 468.208 337.381 469.623 337.634C469.793 337.663 469.921 337.526 469.913 337.327C469.896 337.119 469.751 336.933 469.585 336.904ZM494.95 325.084C494.933 324.881 494.78 324.703 494.61 324.682C494.564 324.678 494.523 324.682 494.49 324.698C494.39 324.744 494.328 324.864 494.34 325.014C494.502 326.747 494.597 328.485 494.635 330.185C494.639 330.384 494.78 330.575 494.95 330.612C495.12 330.65 495.253 330.517 495.249 330.318C495.211 328.601 495.112 326.838 494.95 325.084ZM458.906 341.905C458.807 341.818 458.69 341.793 458.603 341.835C458.558 341.856 458.52 341.893 458.491 341.943C457.969 342.917 457.6 343.996 457.388 345.149C457.297 345.642 457.235 346.152 457.206 346.662C457.193 346.857 457.322 347.06 457.492 347.118C457.662 347.172 457.807 347.06 457.82 346.866C457.849 346.384 457.907 345.908 457.99 345.443C458.189 344.356 458.537 343.34 459.031 342.424C459.109 342.27 459.055 342.038 458.906 341.905ZM476.117 339.952C474.807 338.965 473.446 338.185 472.078 337.63C471.991 337.596 471.908 337.559 471.821 337.53C471.75 337.505 471.684 337.505 471.63 337.53C471.551 337.567 471.493 337.65 471.481 337.762C471.46 337.953 471.58 338.165 471.75 338.227C471.833 338.26 471.912 338.289 471.995 338.322C473.31 338.857 474.612 339.608 475.873 340.558C476.03 340.674 476.208 340.632 476.275 340.466C476.341 340.3 476.275 340.072 476.117 339.952ZM459.416 354.376C459.358 354.256 459.304 354.136 459.25 354.015C458.558 352.46 458.106 350.897 457.907 349.37C457.882 349.167 457.724 348.997 457.554 348.985C457.517 348.981 457.479 348.989 457.446 349.001C457.343 349.047 457.28 349.176 457.297 349.333C457.509 350.951 457.985 352.605 458.72 354.248C458.778 354.376 458.836 354.501 458.894 354.629C458.985 354.82 459.172 354.919 459.317 354.849C459.462 354.778 459.507 354.567 459.416 354.376ZM494.95 332.466C494.892 332.45 494.834 332.454 494.788 332.475C494.701 332.512 494.639 332.611 494.639 332.74C494.606 334.436 494.51 336.128 494.349 337.766C494.328 337.957 494.452 338.169 494.618 338.231C494.788 338.293 494.937 338.189 494.958 337.995C495.12 336.336 495.219 334.623 495.253 332.906C495.253 332.711 495.116 332.512 494.95 332.466ZM481.625 345.667C480.53 344.162 479.344 342.801 478.1 341.632C478 341.536 477.88 341.511 477.789 341.553C477.747 341.574 477.71 341.607 477.681 341.652C477.594 341.802 477.643 342.034 477.789 342.171C478.991 343.303 480.14 344.622 481.202 346.082C481.322 346.248 481.517 346.293 481.633 346.177C481.749 346.065 481.745 345.833 481.625 345.667ZM494.402 340.014C494.328 339.981 494.257 339.981 494.199 340.01C494.125 340.043 494.067 340.122 494.05 340.226C493.818 341.856 493.519 343.461 493.154 345.003C493.113 345.186 493.208 345.406 493.374 345.497C493.54 345.588 493.706 345.514 493.747 345.331C494.116 343.768 494.419 342.138 494.655 340.487C494.68 340.3 494.568 340.089 494.402 340.014ZM463.974 360.73C462.726 359.506 461.627 358.15 460.698 356.695C460.598 356.541 460.436 356.475 460.312 356.529C460.295 356.537 460.279 356.545 460.262 356.558C460.134 356.657 460.125 356.881 460.237 357.059C461.204 358.573 462.348 359.987 463.646 361.256C463.792 361.397 463.978 361.393 464.069 361.244C464.161 361.103 464.119 360.871 463.974 360.73ZM485.656 352.846C485.556 352.609 485.453 352.373 485.349 352.141C484.702 350.689 483.96 349.275 483.143 347.944C483.043 347.782 482.881 347.712 482.753 347.77C482.736 347.778 482.724 347.786 482.711 347.794C482.583 347.89 482.566 348.114 482.674 348.292C483.466 349.59 484.188 350.963 484.818 352.377C484.918 352.605 485.017 352.833 485.117 353.066C485.2 353.261 485.386 353.368 485.532 353.31C485.685 353.248 485.735 353.041 485.656 352.846ZM492.938 347.172C492.851 347.118 492.764 347.114 492.69 347.143C492.627 347.172 492.578 347.23 492.553 347.313C492.345 348.039 492.121 348.761 491.881 349.462C491.62 350.229 491.334 350.992 491.035 351.726C490.969 351.892 491.039 352.12 491.193 352.24C491.346 352.356 491.528 352.319 491.595 352.153C491.902 351.407 492.192 350.631 492.453 349.852C492.694 349.142 492.922 348.408 493.133 347.674C493.187 347.496 493.1 347.272 492.938 347.172ZM469.971 364.823C468.578 364.238 467.197 363.417 465.865 362.385C465.77 362.31 465.666 362.297 465.583 362.335C465.529 362.36 465.488 362.401 465.459 362.467C465.388 362.633 465.459 362.861 465.612 362.982C466.993 364.056 468.428 364.906 469.88 365.516C470.046 365.586 470.203 365.487 470.228 365.296C470.253 365.105 470.137 364.894 469.971 364.823ZM488.065 360.688C487.684 358.872 487.203 357.101 486.631 355.425C486.564 355.226 486.382 355.098 486.228 355.139C486.216 355.143 486.203 355.148 486.195 355.152C486.062 355.21 486.008 355.392 486.071 355.575C486.626 357.217 487.099 358.946 487.472 360.726C487.514 360.929 487.684 361.086 487.846 361.074C488.007 361.062 488.107 360.892 488.065 360.688ZM490.521 353.746C490.425 353.663 490.313 353.646 490.226 353.684C490.176 353.704 490.135 353.746 490.11 353.8C489.442 355.177 488.7 356.471 487.904 357.648C487.808 357.789 487.846 358.022 487.983 358.167C488.124 358.312 488.314 358.316 488.41 358.175C489.218 356.977 489.977 355.662 490.658 354.26C490.728 354.107 490.67 353.874 490.521 353.746ZM476.698 366.047C476.648 365.843 476.474 365.698 476.312 365.719C475.715 365.798 475.101 365.831 474.487 365.827C473.716 365.818 472.916 365.719 472.103 365.528C472.049 365.516 471.995 365.52 471.949 365.541C471.858 365.582 471.796 365.682 471.796 365.818C471.796 366.018 471.937 366.212 472.107 366.25C472.957 366.453 473.799 366.557 474.608 366.565C475.242 366.569 475.877 366.532 476.495 366.453C476.661 366.428 476.752 366.25 476.698 366.047ZM487.049 359.436C486.946 359.316 486.809 359.274 486.705 359.324C486.672 359.336 486.643 359.361 486.622 359.39C485.702 360.535 484.71 361.547 483.682 362.393C483.557 362.497 483.549 362.72 483.661 362.895C483.773 363.069 483.968 363.127 484.092 363.023C485.146 362.152 486.158 361.12 487.099 359.95C487.203 359.822 487.182 359.589 487.049 359.436ZM482.446 363.782C482.351 363.612 482.176 363.529 482.048 363.591C482.04 363.596 482.027 363.6 482.019 363.608C481.388 364.01 480.733 364.363 480.074 364.657C479.501 364.914 478.913 365.13 478.324 365.3C478.17 365.346 478.104 365.541 478.17 365.74C478.241 365.939 478.423 366.063 478.577 366.018C479.186 365.839 479.792 365.619 480.381 365.354C481.061 365.051 481.733 364.686 482.384 364.272C482.521 364.184 482.545 363.965 482.446 363.782ZM488.547 363.338C488.513 363.135 488.356 362.969 488.19 362.965C488.153 362.965 488.124 362.969 488.09 362.986C487.983 363.036 487.92 363.168 487.945 363.326C488.202 364.981 488.389 366.731 488.505 368.522C488.518 368.726 488.667 368.908 488.833 368.933C489.003 368.958 489.127 368.817 489.115 368.618C488.999 366.797 488.808 365.022 488.547 363.338ZM489.231 371.231C489.227 371.032 489.086 370.841 488.916 370.803C488.862 370.791 488.812 370.799 488.771 370.816C488.675 370.857 488.617 370.965 488.621 371.102C488.663 372.74 488.65 374.412 488.588 376.211C488.58 376.411 488.712 376.61 488.882 376.659C489.053 376.709 489.194 376.589 489.202 376.394C489.264 374.573 489.276 372.885 489.231 371.231ZM488.787 378.484C488.725 378.463 488.663 378.468 488.609 378.488C488.526 378.526 488.464 378.617 488.459 378.737C488.356 380.404 488.211 382.084 488.028 383.73C488.007 383.921 488.128 384.133 488.294 384.199C488.464 384.265 488.617 384.162 488.638 383.971C488.824 382.312 488.97 380.62 489.073 378.94C489.086 378.741 488.957 378.538 488.787 378.484ZM488.074 385.974C487.999 385.945 487.929 385.945 487.871 385.97C487.796 386.003 487.738 386.082 487.721 386.19C487.497 387.811 487.236 389.441 486.933 391.038C486.896 391.225 487.004 391.44 487.17 391.523C487.336 391.606 487.497 391.519 487.535 391.337C487.837 389.732 488.107 388.089 488.331 386.455C488.356 386.26 488.244 386.049 488.074 385.974ZM486.825 393.244C486.747 393.203 486.664 393.199 486.597 393.228C486.527 393.257 486.477 393.323 486.456 393.418C486.116 394.986 485.735 396.558 485.32 398.088C485.27 398.267 485.366 398.491 485.527 398.586C485.689 398.681 485.859 398.615 485.909 398.437C486.328 396.894 486.709 395.314 487.054 393.729C487.091 393.547 486.991 393.331 486.825 393.244ZM485.055 400.237C484.967 400.183 484.876 400.174 484.806 400.208C484.744 400.237 484.694 400.29 484.669 400.373C484.217 401.879 483.723 403.38 483.201 404.84C483.139 405.01 483.217 405.238 483.375 405.35C483.533 405.462 483.711 405.412 483.773 405.242C484.3 403.774 484.797 402.26 485.254 400.742C485.303 400.564 485.216 400.34 485.055 400.237ZM482.786 406.922C482.695 406.856 482.591 406.839 482.512 406.876C482.458 406.901 482.413 406.947 482.384 407.017C482.139 407.639 481.89 408.261 481.629 408.879H482.367C482.566 408.398 482.757 407.917 482.948 407.432C483.014 407.266 482.944 407.038 482.786 406.922Z" fill="url(#paint2_linear_72_8770)"/>
<path d="M260.916 366.146C260.887 365.939 260.734 365.794 260.58 365.814H260.576C259.237 366.026 257.851 366.192 256.491 366.304C256.329 366.32 256.222 366.499 256.242 366.706C256.263 366.918 256.412 367.075 256.57 367.063C257.557 366.98 258.552 366.872 259.531 366.739C259.917 366.685 260.307 366.631 260.688 366.569C260.842 366.54 260.945 366.354 260.916 366.146ZM266.975 364.819C266.934 364.612 266.772 364.479 266.615 364.525C265.292 364.881 263.944 365.196 262.6 365.458C262.442 365.487 262.343 365.682 262.38 365.889C262.413 366.092 262.563 366.233 262.716 366.212C262.72 366.212 262.724 366.212 262.729 366.208C264.085 365.947 265.445 365.628 266.776 365.267C266.93 365.225 267.021 365.026 266.975 364.819ZM254.753 366.801C254.737 366.59 254.592 366.428 254.43 366.436C253.066 366.503 251.676 366.515 250.299 366.486C250.138 366.482 250.017 366.648 250.026 366.859C250.034 367.071 250.171 367.241 250.332 367.245C251.718 367.278 253.115 367.262 254.492 367.195C254.5 367.195 254.505 367.195 254.513 367.195C254.662 367.175 254.77 367.005 254.753 366.801ZM272.894 362.828C272.835 362.625 272.67 362.509 272.52 362.571C271.235 363.077 269.92 363.538 268.605 363.948C268.452 363.998 268.365 364.201 268.414 364.404C268.46 364.591 268.601 364.715 268.742 364.695C268.755 364.695 268.767 364.69 268.779 364.686C270.107 364.276 271.434 363.807 272.728 363.301C272.873 363.239 272.952 363.032 272.894 362.828ZM248.23 366.399C246.857 366.316 245.459 366.188 244.087 366.009C243.925 365.989 243.792 366.142 243.788 366.349C243.784 366.557 243.913 366.743 244.074 366.764C245.459 366.942 246.865 367.075 248.251 367.158C248.267 367.158 248.28 367.158 248.292 367.158C248.433 367.141 248.537 366.988 248.533 366.797C248.524 366.586 248.392 366.407 248.23 366.399ZM278.621 360.17C278.55 359.975 278.376 359.88 278.231 359.954C276.995 360.605 275.718 361.215 274.445 361.771C274.295 361.837 274.225 362.049 274.287 362.248C274.341 362.422 274.474 362.526 274.606 362.509C274.627 362.505 274.648 362.501 274.664 362.492C275.95 361.933 277.236 361.315 278.48 360.659C278.629 360.589 278.691 360.369 278.621 360.17ZM242.017 365.702C240.644 365.474 239.255 365.196 237.887 364.877C237.725 364.84 237.584 364.977 237.567 365.184C237.551 365.391 237.667 365.59 237.824 365.628C239.201 365.951 240.603 366.233 241.988 366.461C242.013 366.465 242.034 366.465 242.055 366.461C242.183 366.445 242.287 366.312 242.295 366.13C242.299 365.918 242.179 365.727 242.017 365.702ZM284.112 356.856C284.029 356.67 283.851 356.591 283.714 356.682C282.532 357.474 281.312 358.233 280.089 358.934C279.948 359.017 279.89 359.241 279.965 359.432C280.027 359.589 280.151 359.676 280.276 359.66C280.305 359.656 280.33 359.647 280.359 359.631C281.594 358.926 282.822 358.159 284.016 357.362C284.149 357.275 284.195 357.047 284.112 356.856ZM235.83 364.355C234.465 363.985 233.088 363.562 231.74 363.094C231.583 363.04 231.429 363.16 231.4 363.363C231.371 363.567 231.475 363.774 231.632 363.828C232.993 364.296 234.378 364.724 235.755 365.097C235.784 365.105 235.817 365.105 235.846 365.101C235.966 365.084 236.066 364.968 236.082 364.802C236.099 364.599 235.987 364.396 235.83 364.355ZM289.321 352.9C289.225 352.721 289.043 352.663 288.914 352.771C287.799 353.704 286.642 354.604 285.48 355.45C285.344 355.55 285.302 355.778 285.389 355.965C285.456 356.106 285.572 356.18 285.688 356.164C285.725 356.16 285.758 356.143 285.791 356.122C286.965 355.272 288.131 354.364 289.254 353.422C289.387 353.315 289.416 353.082 289.321 352.9ZM229.708 362.356C228.364 361.841 227.008 361.277 225.685 360.672C225.532 360.601 225.37 360.705 225.329 360.9C225.287 361.099 225.378 361.315 225.532 361.385C226.867 361.995 228.228 362.567 229.584 363.081C229.621 363.098 229.658 363.102 229.696 363.094C229.808 363.077 229.903 362.978 229.928 362.824C229.965 362.629 229.866 362.418 229.708 362.356ZM223.695 359.722C222.376 359.067 221.057 358.362 219.767 357.615C219.618 357.528 219.448 357.611 219.394 357.802C219.336 357.993 219.415 358.217 219.568 358.304C220.866 359.054 222.197 359.768 223.525 360.423C223.57 360.448 223.616 360.452 223.661 360.448C223.765 360.435 223.856 360.344 223.89 360.207C223.935 360.021 223.848 359.801 223.695 359.722ZM217.835 356.462C216.557 355.67 215.276 354.824 214.032 353.949C213.886 353.845 213.712 353.912 213.646 354.094C213.579 354.277 213.642 354.509 213.787 354.613C215.039 355.496 216.329 356.35 217.619 357.147C217.673 357.18 217.727 357.192 217.777 357.184C217.872 357.171 217.959 357.097 217.996 356.972C218.059 356.782 217.984 356.554 217.835 356.462ZM212.169 352.589C210.938 351.664 209.714 350.685 208.524 349.677C208.383 349.557 208.205 349.603 208.126 349.777C208.047 349.951 208.093 350.188 208.234 350.304C209.432 351.32 210.672 352.307 211.912 353.236C211.97 353.281 212.033 353.298 212.095 353.29C212.182 353.277 212.261 353.215 212.306 353.107C212.373 352.933 212.315 352.697 212.169 352.589ZM206.741 348.126C206.33 347.757 205.92 347.38 205.513 347.002C204.762 346.302 204.012 345.576 203.274 344.833C203.141 344.701 202.958 344.726 202.867 344.887C202.776 345.049 202.809 345.29 202.938 345.422C203.68 346.169 204.439 346.903 205.198 347.608C205.604 347.989 206.023 348.371 206.434 348.74C206.496 348.798 206.571 348.819 206.637 348.811C206.716 348.798 206.79 348.748 206.836 348.657C206.919 348.487 206.878 348.251 206.741 348.126ZM201.586 343.104C200.487 341.939 199.388 340.715 198.322 339.467C198.197 339.322 198.015 339.326 197.911 339.479C197.807 339.633 197.828 339.873 197.948 340.018C199.023 341.275 200.13 342.507 201.237 343.68C201.304 343.751 201.387 343.78 201.461 343.772C201.532 343.763 201.598 343.718 201.644 343.643C201.743 343.477 201.714 343.241 201.586 343.104ZM196.742 337.567C195.709 336.298 194.685 334.971 193.689 333.623C193.573 333.466 193.391 333.453 193.279 333.594C193.167 333.735 193.171 333.976 193.287 334.129C194.291 335.486 195.323 336.821 196.36 338.102C196.431 338.19 196.518 338.227 196.605 338.214C196.667 338.206 196.729 338.169 196.775 338.107C196.874 337.957 196.862 337.717 196.742 337.567ZM192.213 331.579C191.251 330.214 190.301 328.796 189.38 327.365C189.272 327.199 189.09 327.166 188.97 327.295C188.849 327.423 188.837 327.66 188.945 327.83C189.87 329.273 190.828 330.7 191.798 332.072C191.869 332.172 191.964 332.217 192.055 332.205C192.113 332.197 192.163 332.168 192.209 332.118C192.325 331.981 192.329 331.741 192.213 331.579ZM188.024 325.196C187.137 323.749 186.262 322.252 185.42 320.746C185.32 320.572 185.138 320.522 185.013 320.638C184.885 320.754 184.86 320.991 184.959 321.165C185.805 322.683 186.689 324.188 187.58 325.644C187.651 325.756 187.755 325.814 187.854 325.798C187.904 325.789 187.949 325.768 187.991 325.727C188.111 325.603 188.128 325.366 188.024 325.196ZM184.175 318.465C183.367 316.947 182.566 315.38 181.803 313.808C181.716 313.625 181.534 313.559 181.401 313.663C181.268 313.766 181.231 313.999 181.318 314.181C182.085 315.761 182.89 317.341 183.703 318.867C183.769 318.996 183.881 319.058 183.989 319.046C184.03 319.042 184.072 319.021 184.109 318.992C184.242 318.876 184.271 318.644 184.175 318.465ZM180.675 311.431C179.941 309.847 179.224 308.221 178.543 306.596C178.465 306.405 178.286 306.326 178.145 306.417C178.004 306.509 177.959 306.733 178.038 306.923C178.726 308.557 179.448 310.196 180.182 311.788C180.248 311.929 180.368 312.004 180.48 311.987C180.518 311.983 180.551 311.971 180.584 311.946C180.721 311.846 180.762 311.614 180.675 311.431ZM177.536 304.136C176.885 302.502 176.246 300.823 175.645 299.151C175.574 298.956 175.4 298.861 175.255 298.936C175.11 299.015 175.047 299.234 175.118 299.429C175.723 301.113 176.362 302.801 177.021 304.447C177.084 304.601 177.208 304.688 177.328 304.671C177.357 304.667 177.386 304.655 177.415 304.638C177.561 304.555 177.615 304.327 177.536 304.136ZM174.761 296.626C174.189 294.942 173.637 293.225 173.119 291.512C173.057 291.313 172.887 291.201 172.737 291.267C172.588 291.334 172.518 291.545 172.576 291.744C173.098 293.466 173.654 295.195 174.23 296.887C174.288 297.053 174.417 297.152 174.546 297.132C174.57 297.128 174.591 297.119 174.616 297.111C174.765 297.04 174.832 296.821 174.761 296.626ZM172.36 288.924C171.871 287.203 171.402 285.445 170.971 283.707C170.921 283.504 170.755 283.379 170.602 283.429C170.448 283.479 170.365 283.686 170.419 283.89C170.854 285.64 171.323 287.406 171.817 289.14C171.866 289.318 172.003 289.426 172.14 289.41C172.157 289.405 172.173 289.401 172.194 289.397C172.343 289.339 172.418 289.128 172.36 288.924ZM170.34 281.078C169.934 279.323 169.556 277.54 169.208 275.777C169.167 275.57 169.009 275.433 168.851 275.471C168.698 275.508 168.603 275.707 168.644 275.91C168.992 277.685 169.374 279.481 169.78 281.244C169.826 281.434 169.967 281.559 170.108 281.538C170.12 281.538 170.133 281.534 170.141 281.53C170.299 281.484 170.386 281.281 170.34 281.078ZM168.71 273.111C168.395 271.336 168.105 269.532 167.848 267.748C167.819 267.541 167.665 267.392 167.512 267.412H167.508C167.35 267.437 167.246 267.624 167.275 267.831C167.533 269.623 167.823 271.439 168.142 273.227C168.18 273.426 168.325 273.567 168.478 273.546C168.482 273.546 168.491 273.546 168.495 273.542C168.648 273.509 168.748 273.314 168.71 273.111ZM167.483 265.057C167.255 263.265 167.06 261.449 166.898 259.661C166.877 259.45 166.732 259.288 166.575 259.3C166.417 259.309 166.301 259.487 166.322 259.699C166.483 261.499 166.682 263.327 166.91 265.132C166.935 265.339 167.089 265.496 167.246 265.476H167.251C167.404 265.451 167.512 265.264 167.483 265.057ZM166.674 256.957C166.541 255.157 166.442 253.337 166.375 251.549C166.367 251.338 166.23 251.164 166.069 251.159C165.907 251.155 165.782 251.321 165.791 251.529C165.857 253.328 165.961 255.161 166.093 256.974C166.11 257.185 166.251 257.351 166.413 257.347C166.421 257.347 166.429 257.347 166.438 257.347C166.583 257.326 166.691 257.156 166.674 256.957ZM166.293 243.454C166.297 243.246 166.168 243.06 166.006 243.039C165.845 243.018 165.712 243.172 165.708 243.379C165.675 245.171 165.675 247 165.712 248.808C165.716 249.015 165.849 249.198 166.01 249.206C166.027 249.206 166.04 249.206 166.056 249.206C166.193 249.185 166.301 249.036 166.297 248.845C166.263 247.049 166.263 245.233 166.293 243.454ZM190.84 238.444C190.794 238.237 190.633 238.108 190.479 238.149C189.194 238.502 187.825 238.651 186.448 238.589C186.286 238.581 186.162 238.747 186.17 238.954C186.174 239.166 186.311 239.34 186.473 239.348C187.307 239.385 188.136 239.352 188.945 239.24C189.517 239.161 190.089 239.045 190.641 238.892C190.794 238.85 190.882 238.647 190.84 238.444ZM196.29 235.143C196.19 234.969 196.003 234.927 195.879 235.047C194.834 236.051 193.664 236.856 192.399 237.444C192.25 237.511 192.184 237.731 192.246 237.926C192.3 238.096 192.433 238.199 192.565 238.178C192.586 238.174 192.607 238.17 192.628 238.162C193.942 237.552 195.157 236.714 196.244 235.674C196.373 235.553 196.393 235.317 196.29 235.143ZM184.404 238.34C183.047 238.075 181.695 237.614 180.385 236.972C180.231 236.897 180.07 236.992 180.02 237.187C179.974 237.382 180.061 237.602 180.215 237.677C181.563 238.344 182.96 238.817 184.358 239.091C184.383 239.095 184.408 239.095 184.433 239.095C184.561 239.078 184.661 238.95 184.673 238.772C184.681 238.564 184.561 238.369 184.404 238.34ZM166.409 234.981C166.247 234.944 166.106 235.085 166.089 235.288C165.952 237.059 165.853 238.871 165.782 240.675C165.774 240.882 165.899 241.073 166.06 241.098C166.081 241.102 166.106 241.102 166.127 241.098C166.259 241.082 166.359 240.945 166.367 240.766C166.434 238.979 166.537 237.179 166.67 235.416C166.686 235.213 166.57 235.014 166.409 234.981ZM200.03 229.092C199.885 228.984 199.711 229.046 199.641 229.229C199.027 230.813 198.26 232.211 197.368 233.38C197.26 233.525 197.264 233.762 197.384 233.919C197.455 234.01 197.546 234.052 197.633 234.04C197.691 234.031 197.749 233.998 197.795 233.94C198.728 232.721 199.524 231.265 200.167 229.614C200.238 229.432 200.176 229.2 200.03 229.092ZM178.465 235.868C177.536 235.259 176.636 234.546 175.794 233.758C175.499 233.48 175.201 233.189 174.915 232.891C174.782 232.754 174.604 232.775 174.508 232.936C174.413 233.098 174.442 233.334 174.575 233.471C174.873 233.778 175.176 234.081 175.479 234.363C176.35 235.18 177.274 235.914 178.237 236.544C178.291 236.582 178.349 236.594 178.402 236.586C178.494 236.573 178.581 236.503 178.618 236.383C178.68 236.192 178.61 235.964 178.465 235.868ZM167.3 227.031C167.143 226.977 166.989 227.097 166.96 227.3C166.716 228.98 166.5 230.767 166.322 232.609C166.301 232.816 166.413 233.015 166.575 233.057C166.604 233.065 166.633 233.065 166.662 233.061C166.782 233.044 166.881 232.924 166.898 232.758C167.076 230.933 167.288 229.162 167.528 227.495C167.562 227.296 167.458 227.085 167.3 227.031ZM173.31 231.066C172.306 229.818 171.356 228.424 170.485 226.919C170.386 226.744 170.203 226.699 170.075 226.819C169.95 226.935 169.93 227.176 170.029 227.346C170.921 228.889 171.895 230.315 172.924 231.597C172.994 231.684 173.086 231.721 173.169 231.709C173.231 231.7 173.289 231.663 173.335 231.601C173.442 231.456 173.43 231.215 173.31 231.066ZM201.569 221.415C201.407 221.382 201.266 221.519 201.254 221.726C201.129 223.506 200.847 225.231 200.416 226.844C200.366 227.039 200.445 227.259 200.599 227.342C200.648 227.367 200.698 227.375 200.744 227.371C200.843 227.358 200.935 227.271 200.968 227.139C201.411 225.471 201.702 223.692 201.834 221.851C201.847 221.648 201.727 221.453 201.569 221.415ZM169.27 224.646C168.959 224.011 168.656 223.36 168.366 222.693C168.569 221.701 168.785 220.735 169.017 219.81C169.067 219.615 168.98 219.396 168.826 219.317C168.673 219.238 168.511 219.333 168.462 219.528C168.287 220.237 168.117 220.967 167.956 221.714C167.703 221.088 167.458 220.449 167.226 219.798C167.155 219.603 166.981 219.508 166.836 219.582C166.691 219.661 166.628 219.881 166.699 220.076C167.022 220.984 167.371 221.876 167.74 222.742C167.611 223.377 167.491 224.024 167.375 224.675C167.342 224.874 167.437 225.09 167.595 225.148C167.752 225.21 167.906 225.094 167.943 224.895C168.014 224.497 168.088 224.099 168.163 223.705C168.366 224.148 168.569 224.588 168.785 225.015C168.851 225.148 168.967 225.218 169.079 225.206C169.117 225.202 169.158 225.185 169.191 225.156C169.324 225.057 169.357 224.824 169.27 224.646ZM201.627 215.414C201.544 214.813 201.445 214.212 201.329 213.623C201.287 213.415 201.129 213.278 200.972 213.32C200.818 213.357 200.723 213.556 200.764 213.764C200.876 214.328 200.972 214.912 201.055 215.493C201.212 216.671 201.304 217.878 201.324 219.076C201.329 219.288 201.461 219.466 201.623 219.474C201.64 219.474 201.652 219.474 201.669 219.474C201.81 219.458 201.913 219.304 201.909 219.118C201.884 217.874 201.793 216.629 201.627 215.414ZM171.228 212.067C171.087 211.955 170.908 212.013 170.834 212.192C170.216 213.681 169.648 215.302 169.142 217.015C169.084 217.206 169.162 217.43 169.312 217.521C169.361 217.55 169.415 217.558 169.465 217.554C169.565 217.542 169.648 217.463 169.685 217.334C170.183 215.651 170.743 214.054 171.348 212.59C171.427 212.412 171.369 212.179 171.228 212.067ZM166.4 217.264C165.899 215.572 165.471 213.813 165.135 212.042C165.098 211.835 164.936 211.698 164.783 211.736C164.625 211.773 164.534 211.968 164.571 212.175C164.916 213.979 165.347 215.771 165.861 217.496C165.915 217.67 166.048 217.778 166.185 217.762C166.205 217.757 166.222 217.753 166.243 217.745C166.388 217.679 166.458 217.463 166.4 217.264ZM200.661 210.943C200.109 209.131 199.388 207.464 198.517 205.992C198.413 205.822 198.231 205.776 198.106 205.896C197.982 206.017 197.961 206.253 198.065 206.427C198.898 207.837 199.591 209.438 200.122 211.18C200.176 211.354 200.308 211.458 200.441 211.441C200.462 211.437 200.482 211.433 200.499 211.425C200.648 211.358 200.719 211.147 200.661 210.943ZM174.757 205.743C174.637 205.594 174.45 205.594 174.346 205.739C173.455 206.987 172.621 208.389 171.866 209.911C171.783 210.081 171.825 210.317 171.962 210.442C172.024 210.5 172.099 210.52 172.165 210.512C172.244 210.5 172.318 210.446 172.36 210.355C173.094 208.866 173.911 207.493 174.782 206.278C174.89 206.133 174.877 205.892 174.757 205.743ZM164.696 209.38L164.667 209.173C164.484 207.821 164.352 206.452 164.269 205.104C164.248 204.743 164.227 204.374 164.215 204.009C164.206 203.798 164.07 203.624 163.908 203.619C163.746 203.615 163.626 203.781 163.634 203.993C163.651 204.362 163.667 204.735 163.692 205.104C163.775 206.477 163.912 207.87 164.099 209.247L164.128 209.459C164.157 209.666 164.306 209.82 164.468 209.795C164.621 209.778 164.725 209.587 164.696 209.38ZM197.04 203.86C195.97 202.533 194.759 201.434 193.445 200.596C193.295 200.501 193.125 200.575 193.063 200.762C193.001 200.949 193.071 201.177 193.221 201.272C194.477 202.072 195.63 203.122 196.655 204.391C196.725 204.478 196.812 204.515 196.899 204.503C196.961 204.494 197.02 204.457 197.065 204.395C197.173 204.25 197.161 204.009 197.04 203.86ZM179.584 201.139C179.506 200.949 179.327 200.87 179.186 200.961C177.955 201.766 176.814 202.753 175.798 203.901C175.682 204.034 175.674 204.271 175.786 204.436C175.856 204.54 175.956 204.59 176.051 204.573C176.105 204.565 176.155 204.54 176.2 204.49C177.183 203.379 178.286 202.425 179.481 201.645C179.618 201.554 179.667 201.33 179.584 201.139ZM191.429 199.543C190.085 198.987 188.667 198.68 187.22 198.626C187.058 198.618 186.933 198.784 186.942 198.995C186.95 199.207 187.087 199.381 187.244 199.385C188.638 199.439 189.998 199.733 191.288 200.264C191.329 200.281 191.371 200.285 191.408 200.281C191.516 200.264 191.611 200.169 191.641 200.02C191.678 199.821 191.582 199.605 191.429 199.543ZM185.453 199.066C185.424 198.858 185.274 198.705 185.117 198.726L185.042 198.734C183.694 198.916 182.363 199.315 181.077 199.912C180.928 199.982 180.862 200.198 180.924 200.397C180.978 200.567 181.111 200.667 181.243 200.65C181.264 200.646 181.285 200.642 181.31 200.629C182.554 200.049 183.844 199.667 185.146 199.489L185.216 199.48C185.374 199.456 185.482 199.273 185.453 199.066ZM164.161 195.549C163.999 195.507 163.858 195.644 163.837 195.852C163.676 197.66 163.588 199.48 163.58 201.268C163.58 201.475 163.709 201.662 163.871 201.679C163.887 201.683 163.908 201.679 163.924 201.679C164.061 201.662 164.165 201.517 164.165 201.33C164.173 199.572 164.256 197.776 164.418 195.997C164.435 195.785 164.323 195.586 164.161 195.549ZM165.397 187.719C165.243 187.648 165.082 187.752 165.04 187.951C164.671 189.685 164.364 191.447 164.136 193.181C164.111 193.384 164.215 193.591 164.376 193.641C164.41 193.654 164.443 193.654 164.476 193.649C164.592 193.633 164.692 193.521 164.712 193.363C164.936 191.65 165.239 189.917 165.604 188.204C165.646 188.005 165.554 187.789 165.397 187.719ZM388.88 159.26C388.851 159.053 388.701 158.9 388.54 158.92L388.502 158.924C387.159 159.107 385.794 159.265 384.442 159.397C384.285 159.414 384.173 159.596 384.198 159.804C384.222 160.011 384.368 160.169 384.529 160.156C385.885 160.023 387.258 159.866 388.606 159.679L388.643 159.675C388.805 159.654 388.909 159.468 388.88 159.26ZM394.993 158.232C394.955 158.025 394.802 157.884 394.644 157.913C393.301 158.174 391.936 158.414 390.58 158.626C390.423 158.651 390.319 158.837 390.348 159.049C390.377 159.256 390.53 159.406 390.684 159.381H390.688C392.048 159.169 393.421 158.929 394.769 158.663C394.931 158.634 395.03 158.439 394.993 158.232ZM382.717 159.936C382.696 159.725 382.551 159.567 382.389 159.58C381.025 159.688 379.64 159.771 378.267 159.824C378.105 159.833 377.989 160.007 378.006 160.214C378.022 160.426 378.167 160.588 378.325 160.583C379.702 160.529 381.095 160.447 382.464 160.339C382.468 160.339 382.472 160.339 382.476 160.339C382.634 160.318 382.742 160.14 382.717 159.936ZM401.044 156.851C401.002 156.643 400.84 156.511 400.687 156.548C399.36 156.888 398.004 157.208 396.664 157.494C396.507 157.527 396.411 157.722 396.449 157.929C396.486 158.128 396.631 158.265 396.784 158.244C396.789 158.244 396.797 158.244 396.801 158.24C398.145 157.95 399.505 157.631 400.84 157.29C400.998 157.257 401.089 157.054 401.044 156.851ZM376.206 159.887C374.833 159.916 373.44 159.92 372.067 159.899C371.905 159.895 371.785 160.065 371.793 160.272C371.801 160.484 371.942 160.654 372.1 160.658C373.481 160.679 374.879 160.675 376.256 160.646C376.264 160.646 376.272 160.646 376.28 160.641C376.426 160.621 376.533 160.455 376.517 160.256C376.504 160.053 376.363 159.887 376.206 159.887ZM407.045 155.184C406.999 154.98 406.837 154.848 406.68 154.893C405.361 155.283 404.017 155.661 402.69 156.021C402.537 156.063 402.445 156.262 402.487 156.469C402.528 156.664 402.674 156.793 402.819 156.772C402.827 156.772 402.839 156.768 402.848 156.768C404.179 156.407 405.527 156.026 406.85 155.636C407.003 155.59 407.09 155.387 407.045 155.184ZM369.993 159.845C368.616 159.8 367.223 159.725 365.846 159.625C365.684 159.613 365.556 159.775 365.56 159.982C365.564 160.194 365.697 160.372 365.858 160.384C367.244 160.484 368.641 160.558 370.022 160.604C370.035 160.604 370.047 160.604 370.06 160.604C370.201 160.583 370.304 160.43 370.3 160.235C370.292 160.028 370.155 159.853 369.993 159.845ZM412.992 153.292C412.942 153.089 412.776 152.965 412.623 153.015C411.316 153.454 409.985 153.881 408.666 154.288C408.513 154.333 408.426 154.541 408.476 154.744C408.521 154.931 408.662 155.055 408.803 155.034C408.816 155.034 408.828 155.03 408.84 155.026C410.163 154.62 411.495 154.188 412.805 153.749C412.963 153.703 413.046 153.496 412.992 153.292ZM363.768 159.459C362.391 159.335 360.994 159.182 359.617 159.007C359.455 158.987 359.322 159.14 359.318 159.347C359.314 159.555 359.443 159.741 359.604 159.762C360.989 159.941 362.391 160.09 363.772 160.214C363.789 160.214 363.805 160.214 363.822 160.214C363.959 160.194 364.063 160.048 364.063 159.862C364.063 159.654 363.93 159.472 363.768 159.459ZM418.889 151.186C418.835 150.982 418.665 150.866 418.516 150.924C417.226 151.41 415.907 151.891 414.597 152.347C414.443 152.401 414.365 152.608 414.414 152.811C414.46 152.994 414.601 153.11 414.742 153.093C414.759 153.089 414.771 153.089 414.784 153.081C416.094 152.625 417.417 152.144 418.711 151.654C418.864 151.596 418.943 151.385 418.889 151.186ZM167.474 180.27C167.325 180.175 167.155 180.25 167.093 180.436C166.55 182.07 166.06 183.737 165.637 185.396C165.587 185.591 165.67 185.811 165.824 185.89C165.869 185.915 165.919 185.923 165.965 185.915C166.069 185.902 166.156 185.815 166.193 185.678C166.608 184.04 167.093 182.39 167.632 180.776C167.69 180.598 167.62 180.366 167.474 180.27ZM357.543 158.721C356.166 158.522 354.773 158.29 353.396 158.041C353.234 158.012 353.097 158.157 353.085 158.365C353.072 158.572 353.197 158.763 353.354 158.796C354.735 159.049 356.137 159.277 357.518 159.48C357.539 159.484 357.56 159.484 357.58 159.48C357.713 159.464 357.813 159.327 357.821 159.144C357.829 158.933 357.705 158.746 357.543 158.721ZM424.716 148.847C424.658 148.648 424.488 148.536 424.339 148.598C423.066 149.133 421.759 149.664 420.465 150.174C420.316 150.232 420.237 150.443 420.295 150.647C420.345 150.825 420.482 150.937 420.619 150.916C420.635 150.912 420.652 150.908 420.668 150.904C421.967 150.394 423.277 149.863 424.554 149.324C424.704 149.261 424.778 149.046 424.716 148.847ZM430.477 146.275C430.415 146.076 430.24 145.973 430.095 146.043C428.839 146.632 427.549 147.213 426.267 147.772C426.118 147.839 426.047 148.05 426.11 148.254C426.164 148.428 426.296 148.531 426.429 148.515C426.45 148.511 426.47 148.507 426.487 148.498C427.773 147.938 429.062 147.354 430.323 146.765C430.473 146.69 430.539 146.474 430.477 146.275ZM351.331 157.643C349.958 157.365 348.568 157.062 347.196 156.735C347.034 156.697 346.893 156.834 346.876 157.037C346.86 157.245 346.976 157.444 347.134 157.481C348.506 157.809 349.904 158.116 351.285 158.394C351.31 158.398 351.335 158.398 351.36 158.398C351.488 158.381 351.588 158.253 351.6 158.078C351.608 157.871 351.488 157.676 351.331 157.643ZM436.154 143.459C436.084 143.264 435.914 143.165 435.769 143.24C434.533 143.882 433.264 144.517 431.995 145.131C431.849 145.201 431.783 145.421 431.849 145.616C431.903 145.782 432.036 145.881 432.165 145.865C432.19 145.861 432.21 145.856 432.231 145.844C433.5 145.23 434.773 144.592 436.013 143.945C436.163 143.878 436.221 143.658 436.154 143.459ZM345.135 156.225C343.675 155.847 342.323 155.495 341.012 155.138C340.855 155.092 340.705 155.225 340.685 155.432C340.664 155.64 340.776 155.839 340.933 155.885C342.248 156.241 343.6 156.598 345.064 156.975C345.093 156.984 345.122 156.984 345.151 156.979C345.271 156.963 345.371 156.843 345.388 156.677C345.408 156.465 345.292 156.266 345.135 156.225ZM441.741 140.395C441.666 140.2 441.492 140.113 441.347 140.195C440.132 140.892 438.883 141.589 437.635 142.257C437.49 142.335 437.432 142.555 437.502 142.75C437.56 142.912 437.689 143.003 437.817 142.987C437.842 142.982 437.867 142.974 437.892 142.962C439.144 142.29 440.397 141.593 441.616 140.892C441.757 140.809 441.815 140.585 441.741 140.395ZM170.261 173.286C170.12 173.17 169.942 173.216 169.863 173.39C169.755 173.622 169.652 173.859 169.548 174.095C168.976 175.385 168.437 176.708 167.939 178.031C167.873 178.213 167.935 178.446 168.08 178.549C168.138 178.591 168.196 178.603 168.254 178.595C168.345 178.582 168.424 178.516 168.466 178.404C168.955 177.094 169.49 175.783 170.058 174.51C170.162 174.278 170.266 174.045 170.369 173.813C170.452 173.643 170.402 173.407 170.261 173.286ZM338.951 154.566C337.541 154.168 336.16 153.765 334.845 153.363C334.688 153.313 334.538 153.442 334.513 153.645C334.489 153.848 334.596 154.056 334.754 154.101C336.073 154.503 337.458 154.906 338.868 155.304C338.901 155.312 338.93 155.316 338.959 155.312C339.08 155.296 339.179 155.179 339.196 155.014C339.221 154.815 339.113 154.611 338.951 154.566ZM447.223 137.06C447.145 136.869 446.966 136.786 446.825 136.878C445.635 137.637 444.407 138.387 443.184 139.117C443.043 139.2 442.989 139.424 443.064 139.619C443.126 139.772 443.25 139.86 443.371 139.843C443.4 139.839 443.429 139.831 443.458 139.814C444.685 139.084 445.917 138.325 447.111 137.566C447.252 137.475 447.302 137.251 447.223 137.06ZM332.801 152.728C331.407 152.285 330.03 151.829 328.716 151.372C328.558 151.318 328.405 151.439 328.375 151.638C328.346 151.841 328.45 152.048 328.608 152.102C329.931 152.563 331.308 153.019 332.705 153.463C332.738 153.475 332.772 153.475 332.805 153.471C332.921 153.454 333.02 153.342 333.041 153.185C333.066 152.986 332.958 152.778 332.801 152.728ZM452.59 133.448C452.507 133.261 452.324 133.187 452.188 133.286C451.026 134.107 449.828 134.924 448.625 135.712C448.484 135.804 448.438 136.032 448.517 136.218C448.579 136.368 448.704 136.446 448.82 136.43C448.853 136.426 448.886 136.413 448.915 136.392C450.122 135.6 451.325 134.779 452.49 133.954C452.631 133.863 452.673 133.635 452.59 133.448ZM326.679 150.651C325.298 150.149 323.934 149.626 322.623 149.1C322.466 149.037 322.308 149.149 322.275 149.348C322.238 149.548 322.337 149.763 322.491 149.825C323.805 150.356 325.178 150.879 326.563 151.385C326.6 151.397 326.638 151.401 326.671 151.397C326.787 151.381 326.882 151.277 326.907 151.123C326.936 150.916 326.837 150.709 326.679 150.651ZM173.658 166.813C173.525 166.676 173.347 166.701 173.252 166.858C172.439 168.243 171.659 169.691 170.933 171.155C170.85 171.325 170.892 171.561 171.029 171.686C171.091 171.744 171.166 171.764 171.232 171.756C171.311 171.744 171.381 171.694 171.427 171.603C172.148 170.151 172.92 168.72 173.72 167.352C173.816 167.19 173.787 166.949 173.658 166.813ZM457.82 129.541C457.728 129.359 457.55 129.296 457.417 129.4C456.285 130.284 455.12 131.167 453.946 132.025C453.809 132.125 453.772 132.353 453.855 132.54C453.921 132.681 454.037 132.755 454.153 132.739C454.191 132.735 454.224 132.718 454.257 132.697C455.435 131.839 456.604 130.951 457.741 130.064C457.878 129.956 457.911 129.724 457.82 129.541ZM320.608 148.266C319.243 147.69 317.895 147.088 316.597 146.479C316.444 146.404 316.282 146.508 316.236 146.703C316.191 146.897 316.282 147.117 316.436 147.192C317.738 147.806 319.094 148.407 320.463 148.988C320.504 149.004 320.545 149.013 320.583 149.004C320.691 148.988 320.786 148.892 320.815 148.747C320.857 148.548 320.761 148.332 320.608 148.266ZM177.585 160.903C177.465 160.753 177.283 160.745 177.175 160.894C176.246 162.155 175.346 163.47 174.5 164.805C174.4 164.959 174.425 165.199 174.55 165.34C174.616 165.415 174.703 165.448 174.782 165.436C174.848 165.427 174.915 165.386 174.96 165.311C175.798 163.988 176.69 162.686 177.61 161.438C177.718 161.297 177.706 161.052 177.585 160.903ZM314.607 145.516C314.457 145.442 314.308 145.367 314.159 145.292C312.968 144.695 311.795 144.073 310.663 143.447C310.513 143.364 310.343 143.451 310.293 143.642C310.24 143.833 310.318 144.057 310.472 144.144C311.666 144.807 312.902 145.462 314.159 146.089C314.25 146.134 314.341 146.18 314.432 146.226C314.478 146.246 314.524 146.255 314.569 146.25C314.673 146.238 314.764 146.147 314.797 146.01C314.847 145.811 314.76 145.591 314.607 145.516ZM308.717 142.331C307.407 141.56 306.113 140.751 304.873 139.934C304.728 139.839 304.554 139.909 304.491 140.096C304.429 140.283 304.496 140.511 304.645 140.61C305.893 141.435 307.191 142.248 308.514 143.024C308.564 143.053 308.618 143.065 308.668 143.057C308.767 143.045 308.85 142.966 308.888 142.837C308.946 142.646 308.867 142.418 308.717 142.331ZM181.994 155.603C181.886 155.437 181.704 155.408 181.583 155.54C180.551 156.664 179.547 157.842 178.593 159.045C178.481 159.186 178.485 159.426 178.602 159.58C178.672 159.675 178.767 159.717 178.855 159.704C178.913 159.696 178.971 159.667 179.012 159.609C179.958 158.419 180.953 157.253 181.973 156.138C182.094 156.005 182.102 155.764 181.994 155.603ZM302.982 138.64C301.713 137.749 300.469 136.815 299.278 135.866C299.137 135.754 298.959 135.804 298.884 135.982C298.81 136.16 298.859 136.392 299.005 136.509C300.203 137.462 301.46 138.404 302.741 139.304C302.799 139.345 302.857 139.358 302.915 139.349C303.007 139.337 303.086 139.271 303.127 139.159C303.193 138.976 303.131 138.744 302.982 138.64ZM186.809 150.92C186.714 150.742 186.531 150.692 186.403 150.804C185.287 151.791 184.192 152.828 183.147 153.89C183.027 154.014 183.01 154.251 183.114 154.421C183.184 154.533 183.288 154.586 183.387 154.574C183.437 154.566 183.483 154.545 183.524 154.503C184.557 153.454 185.644 152.422 186.751 151.443C186.879 151.331 186.909 151.094 186.809 150.92ZM191.964 146.848C191.877 146.661 191.699 146.591 191.562 146.69C190.376 147.544 189.206 148.444 188.086 149.365C187.954 149.473 187.925 149.705 188.016 149.888C188.082 150.016 188.198 150.083 188.306 150.07C188.348 150.066 188.385 150.045 188.422 150.016C189.53 149.1 190.691 148.208 191.869 147.362C192.01 147.262 192.051 147.034 191.964 146.848ZM297.47 134.381C296.263 133.357 295.081 132.283 293.953 131.196C293.821 131.067 293.638 131.096 293.551 131.262C293.46 131.428 293.497 131.665 293.63 131.797C294.766 132.896 295.956 133.979 297.176 135.011C297.238 135.065 297.308 135.086 297.375 135.074C297.458 135.061 297.532 135.007 297.574 134.912C297.657 134.738 297.607 134.501 297.47 134.381ZM197.389 143.36C197.314 143.169 197.136 143.078 196.995 143.161C195.75 143.887 194.527 144.658 193.345 145.446C193.208 145.541 193.163 145.765 193.241 145.956C193.304 146.101 193.428 146.18 193.544 146.168C193.577 146.163 193.61 146.151 193.639 146.13C194.809 145.346 196.028 144.579 197.26 143.857C197.405 143.775 197.463 143.551 197.389 143.36ZM203.025 140.419C202.958 140.22 202.788 140.117 202.643 140.187C201.358 140.793 200.084 141.444 198.861 142.111C198.716 142.19 198.658 142.41 198.728 142.605C198.786 142.767 198.915 142.858 199.039 142.841C199.064 142.837 199.093 142.829 199.118 142.817C200.337 142.153 201.602 141.51 202.88 140.905C203.021 140.834 203.087 140.614 203.025 140.419ZM294.907 128.782C294.874 128.575 294.716 128.43 294.559 128.459C293.659 128.629 292.73 128.786 291.793 128.94C290.876 127.882 290.026 126.75 289.254 125.572C289.147 125.406 288.96 125.377 288.844 125.506C288.724 125.634 288.715 125.875 288.823 126.041C289.507 127.09 290.254 128.098 291.054 129.056C290.868 129.085 290.677 129.114 290.49 129.143C290.333 129.168 290.229 129.355 290.258 129.562C290.287 129.769 290.436 129.919 290.594 129.898C290.594 129.898 290.594 129.898 290.598 129.898C290.947 129.848 291.295 129.794 291.639 129.74C291.73 129.844 291.826 129.948 291.917 130.051C291.983 130.126 292.066 130.155 292.145 130.147C292.216 130.138 292.278 130.097 292.323 130.022C292.394 129.91 292.402 129.757 292.352 129.624C293.14 129.496 293.916 129.359 294.679 129.218C294.841 129.18 294.94 128.99 294.907 128.782ZM288.786 129.761C288.757 129.554 288.607 129.4 288.45 129.421C287.127 129.595 285.75 129.753 284.352 129.89C284.348 129.89 284.348 129.89 284.344 129.89C284.191 129.91 284.083 130.089 284.108 130.296C284.133 130.503 284.282 130.661 284.439 130.644C285.841 130.503 287.226 130.346 288.549 130.172C288.711 130.155 288.815 129.972 288.786 129.761ZM282.627 130.437C282.606 130.225 282.457 130.068 282.299 130.084C280.977 130.196 279.591 130.3 278.181 130.387C278.02 130.396 277.908 130.574 277.928 130.785C277.949 130.997 278.094 131.159 278.252 131.146C279.666 131.059 281.055 130.955 282.382 130.839C282.387 130.839 282.391 130.839 282.395 130.839C282.544 130.819 282.648 130.644 282.627 130.437ZM300.966 127.43C300.925 127.223 300.767 127.09 300.61 127.127C299.303 127.459 297.947 127.774 296.587 128.056C296.429 128.09 296.334 128.285 296.371 128.492C296.408 128.691 296.554 128.832 296.707 128.811C296.711 128.811 296.715 128.811 296.724 128.807C298.092 128.521 299.453 128.21 300.767 127.874C300.917 127.837 301.008 127.638 300.966 127.43ZM276.439 130.872C276.423 130.665 276.278 130.499 276.116 130.507C274.793 130.578 273.441 130.636 271.985 130.69C271.824 130.694 271.707 130.868 271.724 131.08C271.741 131.291 271.882 131.457 272.043 131.449C273.499 131.395 274.855 131.337 276.182 131.266C276.186 131.266 276.195 131.266 276.199 131.266C276.352 131.246 276.456 131.072 276.439 130.872ZM306.934 125.655C306.884 125.452 306.719 125.328 306.565 125.377C305.275 125.809 303.944 126.219 302.604 126.592C302.451 126.638 302.36 126.837 302.405 127.045C302.447 127.235 302.592 127.364 302.737 127.343C302.745 127.343 302.758 127.339 302.766 127.335C304.114 126.957 305.454 126.547 306.748 126.111C306.901 126.062 306.984 125.858 306.934 125.655ZM270.235 131.125C270.219 130.914 270.078 130.748 269.916 130.752C268.638 130.79 267.282 130.823 265.777 130.852C265.619 130.856 265.499 131.026 265.511 131.237C265.528 131.449 265.669 131.615 265.827 131.611C267.332 131.582 268.688 131.548 269.97 131.511C269.978 131.511 269.986 131.511 269.995 131.511C270.144 131.495 270.248 131.324 270.235 131.125ZM208.823 137.981C208.769 137.778 208.599 137.661 208.449 137.72C207.135 138.217 205.824 138.752 204.559 139.308C204.41 139.374 204.339 139.59 204.402 139.789C204.456 139.963 204.588 140.067 204.721 140.05C204.742 140.046 204.762 140.042 204.783 140.034C206.04 139.482 207.342 138.947 208.648 138.454C208.802 138.391 208.877 138.18 208.823 137.981ZM263.707 130.893C262.326 130.918 260.945 130.935 259.564 130.955C259.403 130.955 259.286 131.13 259.299 131.341C259.311 131.553 259.452 131.718 259.614 131.718C260.995 131.698 262.376 131.681 263.757 131.656C263.765 131.656 263.774 131.656 263.782 131.656C263.927 131.636 264.035 131.47 264.018 131.275C264.006 131.059 263.865 130.889 263.707 130.893ZM312.778 123.374C312.715 123.175 312.541 123.071 312.396 123.142C312.044 123.308 311.679 123.47 311.31 123.619C310.401 123.992 309.464 124.353 308.531 124.693C308.382 124.747 308.299 124.958 308.353 125.162C308.402 125.344 308.539 125.456 308.676 125.44C308.693 125.435 308.709 125.435 308.722 125.427C309.659 125.083 310.6 124.722 311.517 124.345C311.894 124.191 312.268 124.029 312.624 123.859C312.774 123.789 312.84 123.573 312.778 123.374ZM257.491 130.98C256.259 130.997 254.803 131.018 253.348 131.042C253.186 131.047 253.07 131.217 253.082 131.428C253.095 131.64 253.236 131.806 253.397 131.801C254.857 131.777 256.309 131.756 257.54 131.739C257.549 131.739 257.557 131.739 257.569 131.735C257.715 131.714 257.822 131.553 257.806 131.354C257.789 131.15 257.648 130.98 257.491 130.98ZM214.749 136.003C214.703 135.799 214.538 135.671 214.384 135.716C213.044 136.115 211.709 136.546 210.415 137.002C210.262 137.056 210.183 137.263 210.233 137.467C210.282 137.649 210.419 137.765 210.56 137.749C210.577 137.749 210.589 137.744 210.606 137.736C211.892 137.284 213.219 136.857 214.554 136.459C214.708 136.413 214.795 136.21 214.749 136.003ZM251.27 131.084C249.777 131.117 248.421 131.15 247.127 131.192C246.969 131.196 246.849 131.37 246.865 131.582C246.882 131.793 247.023 131.959 247.185 131.951C248.479 131.909 249.831 131.876 251.324 131.843C251.332 131.843 251.34 131.843 251.349 131.843C251.494 131.822 251.602 131.656 251.585 131.457C251.572 131.25 251.431 131.084 251.27 131.084ZM318.09 119.679C317.991 119.505 317.804 119.463 317.68 119.584C316.68 120.542 315.523 121.413 314.25 122.163C314.217 122.184 314.184 122.213 314.163 122.246C314.088 122.354 314.072 122.516 314.13 122.661C314.138 122.686 314.15 122.707 314.163 122.727C314.229 122.839 314.337 122.897 314.437 122.885C314.466 122.881 314.495 122.872 314.52 122.856C315.826 122.084 317.012 121.193 318.045 120.206C318.173 120.09 318.19 119.853 318.09 119.679ZM245.376 131.636C245.36 131.424 245.215 131.262 245.057 131.266C243.601 131.324 242.245 131.387 240.918 131.461C240.761 131.47 240.644 131.648 240.665 131.855C240.682 132.067 240.827 132.229 240.989 132.22C242.316 132.146 243.668 132.083 245.119 132.025C245.128 132.025 245.132 132.025 245.14 132.025C245.285 132.005 245.393 131.835 245.376 131.636ZM220.767 134.447C220.729 134.24 220.568 134.103 220.414 134.136C219.058 134.443 217.702 134.783 216.387 135.144C216.234 135.186 216.142 135.389 216.188 135.592C216.23 135.787 216.375 135.916 216.52 135.895C216.528 135.895 216.541 135.891 216.549 135.891C217.859 135.534 219.207 135.194 220.559 134.887C220.713 134.85 220.804 134.655 220.767 134.447ZM239.176 131.947C239.156 131.735 239.01 131.577 238.853 131.586C237.435 131.681 236.049 131.789 234.726 131.909C234.565 131.926 234.457 132.104 234.482 132.316C234.507 132.527 234.652 132.685 234.813 132.668C236.132 132.548 237.517 132.44 238.932 132.345C238.936 132.345 238.944 132.345 238.948 132.345C239.089 132.324 239.193 132.15 239.176 131.947ZM226.855 133.278C226.822 133.07 226.672 132.921 226.511 132.946C225.142 133.17 223.769 133.423 222.438 133.697C222.28 133.73 222.185 133.925 222.218 134.132C222.256 134.331 222.401 134.472 222.554 134.452L222.571 134.447C223.898 134.174 225.262 133.921 226.627 133.697C226.784 133.676 226.888 133.485 226.855 133.278ZM232.997 132.465C232.972 132.253 232.823 132.1 232.665 132.117C231.616 132.229 230.562 132.357 229.534 132.498H229.53C229.206 132.54 228.887 132.585 228.564 132.635C228.406 132.66 228.302 132.847 228.331 133.054C228.36 133.261 228.51 133.411 228.667 133.39C228.991 133.344 229.31 133.299 229.629 133.253H229.634C230.658 133.112 231.711 132.988 232.752 132.876H232.756C232.914 132.851 233.022 132.668 232.997 132.465ZM287.952 123.383C287.106 121.819 286.409 120.21 285.887 118.597C285.821 118.398 285.65 118.294 285.501 118.364C285.352 118.435 285.286 118.65 285.352 118.85C285.895 120.517 286.613 122.18 287.484 123.789C287.55 123.913 287.662 123.98 287.77 123.963C287.811 123.959 287.853 123.938 287.89 123.905C288.023 123.793 288.048 123.561 287.952 123.383ZM321.951 113.757C321.81 113.649 321.632 113.703 321.557 113.881L321.524 113.964C320.923 115.407 320.135 116.743 319.185 117.933C319.073 118.074 319.077 118.315 319.193 118.468C319.264 118.563 319.359 118.605 319.446 118.592C319.505 118.584 319.558 118.555 319.604 118.497C320.591 117.257 321.412 115.864 322.038 114.362L322.076 114.275C322.15 114.101 322.092 113.865 321.951 113.757ZM323.511 106.412C323.502 106.2 323.361 106.03 323.204 106.026C323.042 106.022 322.922 106.192 322.93 106.4C323.005 108.092 322.814 109.817 322.358 111.521C322.308 111.716 322.387 111.936 322.54 112.019C322.59 112.044 322.64 112.052 322.685 112.048C322.785 112.036 322.876 111.949 322.909 111.82C323.39 110.024 323.594 108.204 323.511 106.412ZM285.194 116.034C285.074 115.47 284.974 114.901 284.9 114.346C284.734 113.13 284.676 111.928 284.721 110.762C284.73 110.555 284.605 110.364 284.444 110.339C284.282 110.315 284.145 110.46 284.137 110.667C284.087 111.89 284.153 113.151 284.323 114.424C284.402 115.005 284.506 115.598 284.63 116.187C284.672 116.382 284.817 116.511 284.962 116.49C284.97 116.49 284.979 116.486 284.991 116.486C285.149 116.44 285.24 116.241 285.194 116.034ZM323.154 103.637C322.773 101.854 322.105 100.145 321.172 98.5612C321.072 98.387 320.886 98.3455 320.761 98.4658C320.637 98.5861 320.616 98.8225 320.72 98.9925C321.603 100.494 322.233 102.111 322.594 103.791C322.636 103.986 322.781 104.114 322.926 104.094C322.934 104.094 322.947 104.089 322.955 104.089C323.108 104.044 323.196 103.841 323.154 103.637ZM286.505 102.97C286.368 102.845 286.19 102.878 286.103 103.044C285.315 104.575 284.755 106.225 284.439 107.951C284.402 108.15 284.502 108.365 284.655 108.428C284.697 108.444 284.734 108.448 284.771 108.444C284.883 108.428 284.974 108.328 285.004 108.179C285.306 106.532 285.841 104.96 286.592 103.501C286.679 103.335 286.642 103.094 286.505 102.97ZM290.839 97.599C290.739 97.4248 290.557 97.3792 290.428 97.4953C289.483 98.3746 288.607 99.3284 287.828 100.336C287.67 100.539 287.517 100.751 287.367 100.958C287.264 101.108 287.276 101.348 287.396 101.497C287.467 101.58 287.554 101.618 287.637 101.605C287.699 101.597 287.761 101.56 287.807 101.497C287.948 101.294 288.097 101.095 288.251 100.896C289.01 99.9132 289.86 98.9842 290.785 98.1257C290.917 98.0096 290.938 97.7732 290.839 97.599ZM319.691 96.4254C318.654 95.1439 317.452 94.0282 316.124 93.1158C315.979 93.0163 315.805 93.0827 315.739 93.2652C315.672 93.4476 315.739 93.6799 315.884 93.7794C317.157 94.6586 318.31 95.7245 319.305 96.9562C319.376 97.0433 319.463 97.0806 319.55 97.0682C319.612 97.0599 319.67 97.0226 319.716 96.9604C319.824 96.8152 319.811 96.5747 319.691 96.4254ZM296.172 93.9412C296.102 93.7462 295.927 93.6508 295.782 93.7255C294.488 94.4056 293.261 95.1936 292.128 96.0604C291.996 96.1641 291.958 96.3963 292.046 96.5788C292.112 96.7157 292.228 96.7862 292.34 96.7696C292.377 96.7654 292.415 96.7488 292.448 96.724C293.555 95.8738 294.762 95.1024 296.031 94.4347C296.18 94.3559 296.243 94.1361 296.172 93.9412ZM314.163 91.9629C314.159 91.9588 314.15 91.9546 314.146 91.9546C312.774 91.2828 311.368 90.8556 309.97 90.6856C309.808 90.6648 309.676 90.8183 309.671 91.0298C309.667 91.2371 309.796 91.4238 309.958 91.4445C311.301 91.6062 312.653 92.0168 313.976 92.6638C314.022 92.6845 314.067 92.6928 314.113 92.6887C314.13 92.6845 314.146 92.6804 314.163 92.6762C314.246 92.6431 314.312 92.5643 314.341 92.4481C314.383 92.2574 314.304 92.0459 314.163 91.9629ZM302.036 91.7555C301.995 91.5482 301.833 91.4155 301.68 91.4569C300.323 91.8053 298.988 92.2615 297.707 92.8131C297.557 92.8753 297.487 93.091 297.545 93.29C297.599 93.4642 297.731 93.572 297.864 93.5513C297.885 93.5472 297.901 93.543 297.922 93.5347C299.183 92.9956 300.498 92.5477 301.829 92.2035C301.987 92.1578 302.078 91.9588 302.036 91.7555ZM307.863 90.6026C306.499 90.6275 305.097 90.7644 303.716 91.009C303.558 91.0381 303.459 91.2288 303.492 91.4362C303.525 91.6436 303.679 91.7929 303.836 91.7597C305.192 91.5192 306.573 91.3823 307.913 91.3574C307.921 91.3574 307.93 91.3574 307.938 91.3533C308.083 91.3325 308.191 91.1666 308.174 90.9717C308.162 90.7644 308.021 90.5985 307.863 90.6026Z" fill="url(#paint3_linear_72_8770)"/>
<path d="M290.826 352.013C290.872 352.008 290.913 351.988 290.951 351.954C291.498 351.461 292.054 350.947 292.589 350.428C292.713 350.308 292.734 350.072 292.63 349.897C292.531 349.723 292.344 349.682 292.22 349.802C291.685 350.316 291.137 350.826 290.594 351.316C290.465 351.432 290.441 351.664 290.54 351.842C290.611 351.967 290.718 352.029 290.826 352.013Z" fill="url(#paint4_linear_72_8770)"/>
<path d="M504.327 132.56C504.244 132.365 504.057 132.261 503.908 132.32C503.502 132.49 503.091 132.668 502.685 132.846C501.834 133.224 500.98 133.63 500.138 134.049C499.997 134.119 499.951 134.331 500.043 134.522C500.134 134.712 500.321 134.808 500.466 134.737C501.299 134.319 502.15 133.916 502.991 133.543C503.394 133.365 503.804 133.186 504.207 133.02H504.211C504.36 132.958 504.41 132.751 504.327 132.56ZM505.841 131.556C505.836 131.556 505.832 131.561 505.828 131.561C505.687 131.623 505.633 131.822 505.712 132.013C505.791 132.208 505.977 132.32 506.127 132.266C507.259 131.843 508.408 131.453 509.548 131.109V130.316C508.312 130.677 507.064 131.096 505.841 131.556ZM498.724 135.214C498.633 135.032 498.454 134.945 498.313 135.003C498.309 135.007 498.301 135.007 498.297 135.011C497.729 135.322 497.156 135.641 496.596 135.973C495.958 136.347 495.323 136.732 494.714 137.118C494.577 137.205 494.548 137.421 494.651 137.607C494.751 137.79 494.946 137.873 495.079 137.786C495.684 137.404 496.314 137.023 496.949 136.649C497.509 136.322 498.077 136.002 498.641 135.695C498.782 135.621 498.819 135.405 498.724 135.214ZM493.399 138.428C493.303 138.263 493.133 138.184 493.005 138.242C492.992 138.246 492.98 138.254 492.972 138.263C491.794 139.063 490.658 139.897 489.592 140.743C489.467 140.842 489.455 141.07 489.567 141.244C489.679 141.423 489.874 141.481 489.998 141.381C491.052 140.544 492.18 139.714 493.349 138.922C493.478 138.831 493.503 138.611 493.399 138.428ZM488.401 142.211C488.302 142.061 488.144 142.003 488.024 142.053C488.003 142.061 487.987 142.074 487.97 142.09C486.884 143.036 485.843 144.023 484.885 145.023C484.773 145.143 484.781 145.371 484.905 145.537C485.03 145.703 485.225 145.736 485.337 145.62C486.286 144.629 487.315 143.65 488.389 142.717C488.509 142.609 488.518 142.385 488.401 142.211ZM483.864 146.677C483.765 146.553 483.62 146.507 483.512 146.557C483.483 146.569 483.454 146.59 483.433 146.615C482.471 147.727 481.571 148.892 480.758 150.074C480.663 150.215 480.696 150.447 480.837 150.592C480.978 150.742 481.169 150.746 481.264 150.605C482.069 149.439 482.956 148.291 483.906 147.192C484.009 147.067 483.993 146.839 483.864 146.677ZM479.97 151.932C479.87 151.837 479.75 151.807 479.655 151.849C479.613 151.87 479.576 151.899 479.551 151.944C478.767 153.242 478.054 154.599 477.436 155.975C477.361 156.137 477.428 156.369 477.581 156.49C477.735 156.614 477.917 156.581 477.988 156.419C478.597 155.063 479.298 153.728 480.07 152.45C480.157 152.305 480.115 152.073 479.97 151.932ZM476.943 158.033C476.851 157.966 476.752 157.954 476.673 157.991C476.615 158.016 476.569 158.066 476.544 158.136L476.524 158.186C475.985 159.617 475.52 161.139 475.134 162.702C475.089 162.885 475.184 163.105 475.35 163.196C475.512 163.287 475.682 163.217 475.727 163.034C476.105 161.495 476.565 159.998 477.096 158.592L477.117 158.543C477.175 158.373 477.1 158.144 476.943 158.033ZM474.977 164.905C474.898 164.867 474.823 164.863 474.757 164.892C474.686 164.925 474.633 164.996 474.612 165.091C474.309 166.684 474.081 168.351 473.932 170.047C473.915 170.242 474.035 170.449 474.205 170.507C474.375 170.57 474.525 170.462 474.541 170.267C474.686 168.596 474.915 166.953 475.209 165.386C475.25 165.203 475.143 164.987 474.977 164.905ZM474.384 172.78C474.392 172.585 474.263 172.382 474.093 172.332C474.031 172.316 473.973 172.316 473.923 172.341C473.836 172.378 473.778 172.473 473.77 172.598C473.699 174.281 473.699 176.027 473.774 177.778C473.782 177.977 473.928 178.167 474.093 178.196C474.259 178.225 474.392 178.089 474.384 177.89C474.313 176.16 474.313 174.439 474.384 172.78ZM475.176 185.686C474.898 183.945 474.691 182.194 474.55 180.477C474.533 180.274 474.384 180.096 474.214 180.071C474.168 180.067 474.127 180.071 474.089 180.088C473.99 180.133 473.928 180.249 473.94 180.399C474.081 182.136 474.297 183.911 474.574 185.678C474.608 185.881 474.769 186.047 474.935 186.051C475.097 186.051 475.205 185.89 475.176 185.686ZM476.851 193.5C476.383 191.77 475.972 190.02 475.636 188.295C475.595 188.092 475.429 187.934 475.267 187.938C475.238 187.938 475.209 187.947 475.184 187.959C475.072 188.009 475.01 188.154 475.043 188.32C475.387 190.066 475.798 191.841 476.275 193.591C476.329 193.794 476.503 193.935 476.665 193.91C476.822 193.886 476.909 193.699 476.851 193.5ZM479.369 201.185C478.722 199.501 478.129 197.784 477.602 196.084C477.54 195.884 477.361 195.748 477.204 195.781C477.187 195.785 477.175 195.789 477.162 195.793C477.034 195.851 476.976 196.021 477.034 196.204C477.565 197.929 478.166 199.667 478.821 201.371C478.896 201.566 479.083 201.687 479.232 201.633C479.381 201.579 479.443 201.38 479.369 201.185ZM482.649 208.612C482.073 207.459 481.513 206.278 480.99 205.104C480.783 204.639 480.58 204.167 480.381 203.698C480.298 203.503 480.111 203.395 479.966 203.457C479.962 203.457 479.962 203.457 479.958 203.462C479.817 203.524 479.763 203.727 479.846 203.918C480.045 204.391 480.252 204.872 480.464 205.34C480.994 206.53 481.558 207.725 482.143 208.89C482.239 209.077 482.429 209.168 482.57 209.093C482.707 209.015 482.745 208.799 482.649 208.612ZM486.626 215.663C485.677 214.153 484.76 212.585 483.902 211.01C483.806 210.835 483.632 210.752 483.499 210.815C483.491 210.819 483.483 210.823 483.47 210.827C483.333 210.91 483.304 211.13 483.404 211.316C484.271 212.913 485.196 214.497 486.162 216.024C486.274 216.202 486.469 216.264 486.593 216.165C486.722 216.065 486.738 215.841 486.626 215.663ZM491.226 222.22C490.147 220.834 489.09 219.383 488.09 217.911C487.991 217.761 487.833 217.703 487.713 217.757C487.692 217.765 487.676 217.778 487.655 217.794C487.531 217.902 487.526 218.13 487.642 218.3C488.654 219.793 489.72 221.262 490.815 222.663C490.944 222.825 491.134 222.858 491.246 222.738C491.367 222.614 491.354 222.381 491.226 222.22ZM496.389 228.163C495.195 226.927 494.017 225.62 492.889 224.272C492.785 224.152 492.648 224.111 492.54 224.156C492.511 224.169 492.482 224.194 492.457 224.223C492.35 224.351 492.37 224.583 492.503 224.741C493.644 226.106 494.838 227.429 496.049 228.677C496.19 228.822 496.381 228.826 496.476 228.681C496.567 228.54 496.53 228.308 496.389 228.163ZM502.038 233.367C500.744 232.31 499.462 231.173 498.222 229.983C498.123 229.888 498.002 229.863 497.907 229.904C497.865 229.925 497.828 229.954 497.799 230.004C497.712 230.153 497.758 230.386 497.903 230.522C499.159 231.725 500.457 232.878 501.768 233.948C501.921 234.072 502.104 234.043 502.179 233.882C502.253 233.72 502.191 233.492 502.038 233.367ZM508.084 237.718C506.707 236.851 505.339 235.91 504.016 234.918C503.92 234.848 503.821 234.836 503.738 234.869C503.684 234.894 503.638 234.939 503.614 235.006C503.547 235.171 503.618 235.4 503.775 235.52C505.111 236.523 506.5 237.477 507.894 238.357C508.055 238.456 508.225 238.398 508.279 238.22C508.333 238.041 508.242 237.817 508.084 237.718Z" fill="url(#paint5_linear_72_8770)"/>
<path d="M459.217 129.113L477.809 107.349L452.436 116.016L459.217 129.113Z" fill="#8F3169"/>
<path d="M490.044 93.165L473.944 128.421L440.994 105.793L490.044 93.165Z" fill="url(#paint6_linear_72_8770)"/>
<path d="M450.558 112.333L475.773 103.773L461.842 120.163L459.217 129.113L450.558 112.333Z" fill="url(#paint7_linear_72_8770)"/>
<path d="M201.569 314.5L182.201 326.407L257.598 449.045L409.898 355.417L433.541 340.881L358.144 218.242L201.569 314.5Z" fill="url(#paint8_linear_72_8770)"/>
<path d="M358.559 218.976L362.068 224.683C364.639 228.863 364.933 234.027 362.847 238.298L353.101 258.238L318.605 328.82L307.361 327.634C305.362 327.423 303.471 328.584 302.758 330.463L298.702 341.1L220.215 340.001L197.928 339.69C193.175 339.624 188.704 337.032 186.133 332.852L182.799 327.431L182.326 326.66L179.157 321.505C176.698 317.503 176.507 312.509 178.651 308.333L188.708 288.745L201.644 263.551L223.661 220.664L228.75 210.752C229.737 208.832 231.707 207.621 233.868 207.609L245.007 207.546L293.215 207.273L321.678 207.111L343.604 206.987C348.303 206.962 352.67 209.388 355.129 213.39L358.559 218.976Z" fill="url(#paint9_linear_72_8770)"/>
<path d="M433.463 340.927L257.52 449.096L298.694 341.101L308.946 341.246C311.131 341.275 313.105 340.064 314.063 338.103L318.6 328.825L433.463 340.927Z" fill="#BF418C"/>
<path d="M257.524 449.095L304.259 333.03C305.002 331.181 306.868 330.036 308.854 330.206L433.467 340.927L257.524 449.095Z" fill="url(#paint10_linear_72_8770)"/>
<path d="M317.049 199.584L353.097 258.239L318.6 328.821L317.564 330.956L308.854 330.206C306.868 330.036 305.006 331.18 304.259 333.03L300.995 341.138L298.706 341.096L298.698 341.101L220.211 340.002L184.121 281.285C182.405 278.49 183.736 274.55 187.099 272.484L307.855 198.265C311.214 196.2 315.332 196.793 317.049 199.584Z" fill="url(#paint11_linear_72_8770)"/>
<path d="M348.249 250.351L353.097 258.239L318.6 328.821L317.564 330.957L308.854 330.206C306.868 330.036 305.006 331.181 304.259 333.03L300.995 341.138L298.706 341.097L298.698 341.101L220.211 340.002L216.383 333.773C246.675 334.776 323.092 350.27 348.249 250.351Z" fill="#FFC9E9"/>
<path d="M268.779 425.195L305.184 337.671C306.407 334.731 309.377 332.902 312.554 333.134L320.429 333.711C320.641 333.727 320.67 334.026 320.462 334.08L314.582 335.643C312.073 336.311 309.891 337.879 308.489 340.064C307.925 340.943 307.461 341.806 307.175 342.445L270.015 425.771C269.621 426.547 268.443 426.004 268.779 425.195Z" fill="white"/>
<path d="M363.951 244.823L328.981 325.325C328.57 326.267 327.592 326.826 326.576 326.698C325 326.503 324.087 324.811 324.784 323.384L363.382 244.57C363.557 244.217 364.096 244.454 363.951 244.823Z" fill="white"/>
<path d="M204.385 342.893L292.004 348.052C293.028 348.114 293.97 347.492 294.318 346.526C294.857 345.033 293.763 343.452 292.174 343.432L204.422 342.271C204.024 342.266 203.991 342.855 204.385 342.893Z" fill="white"/>
<path d="M311.206 224.401C323.025 224.401 332.606 214.82 332.606 203.001C332.606 191.183 323.025 181.602 311.206 181.602C299.387 181.602 289.806 191.183 289.806 203.001C289.806 214.82 299.387 224.401 311.206 224.401Z" fill="#FF0000"/>
<path d="M318.758 249.314L227.713 305.273C226.544 305.99 225.013 305.625 224.296 304.456C223.578 303.286 223.943 301.756 225.113 301.038L316.158 245.079C317.327 244.362 318.858 244.727 319.575 245.896C320.297 247.066 319.927 248.596 318.758 249.314Z" fill="white"/>
<path d="M325.228 259.835L234.179 315.794C233.009 316.512 231.479 316.147 230.762 314.977C230.044 313.808 230.409 312.277 231.579 311.56L322.623 255.601C323.793 254.883 325.323 255.248 326.041 256.418C326.762 257.587 326.397 259.118 325.228 259.835Z" fill="white"/>
<path d="M331.693 270.357L240.649 326.311C239.479 327.029 237.949 326.664 237.231 325.494C236.514 324.325 236.879 322.795 238.048 322.077L329.089 266.122C330.258 265.405 331.789 265.77 332.506 266.939C333.228 268.105 332.863 269.635 331.693 270.357Z" fill="white"/>
<path d="M307.54 191.235L316.296 204.639L312.066 207.632L302.344 194.91L307.54 191.235ZM318.591 212.37C317.873 212.877 317.081 213.062 316.213 212.924C315.347 212.776 314.661 212.338 314.156 211.61C313.651 210.909 313.475 210.129 313.628 209.269C313.787 208.405 314.225 207.719 314.942 207.212C315.623 206.73 316.4 206.557 317.274 206.69C318.154 206.819 318.846 207.234 319.351 207.935C319.686 208.422 319.87 208.951 319.903 209.521C319.937 210.082 319.843 210.617 319.619 211.128C319.391 211.632 319.049 212.046 318.591 212.37Z" fill="white"/>
<defs>
<linearGradient id="paint0_linear_72_8770" x1="286.203" y1="411.946" x2="361.372" y2="93.2371" gradientUnits="userSpaceOnUse">
<stop stop-color="#FFC9E9"/>
<stop offset="0.3671" stop-color="#FFE3F4"/>
<stop offset="0.7465" stop-color="#FFF8FC"/>
<stop offset="1" stop-color="white"/>
</linearGradient>
<linearGradient id="paint1_linear_72_8770" x1="400.952" y1="256.392" x2="527.523" y2="107.548" gradientUnits="userSpaceOnUse">
<stop stop-color="#FFC9E9"/>
<stop offset="1" stop-color="white"/>
</linearGradient>
<linearGradient id="paint2_linear_72_8770" x1="366.148" y1="330.925" x2="495.249" y2="330.925" gradientUnits="userSpaceOnUse">
<stop stop-color="#FF56BB"/>
<stop offset="0.5629" stop-color="#FF6CC4"/>
<stop offset="1" stop-color="#FF78C9"/>
</linearGradient>
<linearGradient id="paint3_linear_72_8770" x1="163.582" y1="228.931" x2="457.871" y2="228.931" gradientUnits="userSpaceOnUse">
<stop stop-color="#FF56BB"/>
<stop offset="0.5629" stop-color="#FF6CC4"/>
<stop offset="1" stop-color="#FF78C9"/>
</linearGradient>
<linearGradient id="paint4_linear_72_8770" x1="290.481" y1="350.877" x2="292.697" y2="350.877" gradientUnits="userSpaceOnUse">
<stop stop-color="#FF56BB"/>
<stop offset="0.5629" stop-color="#FF6CC4"/>
<stop offset="1" stop-color="#FF78C9"/>
</linearGradient>
<linearGradient id="paint5_linear_72_8770" x1="473.718" y1="184.359" x2="509.545" y2="184.359" gradientUnits="userSpaceOnUse">
<stop stop-color="#FF56BB"/>
<stop offset="0.5629" stop-color="#FF6CC4"/>
<stop offset="1" stop-color="#FF78C9"/>
</linearGradient>
<linearGradient id="paint6_linear_72_8770" x1="440.993" y1="110.794" x2="490.045" y2="110.794" gradientUnits="userSpaceOnUse">
<stop stop-color="#FF56BB"/>
<stop offset="0.5629" stop-color="#FF6CC4"/>
<stop offset="1" stop-color="#FF78C9"/>
</linearGradient>
<linearGradient id="paint7_linear_72_8770" x1="470.227" y1="124.689" x2="462.97" y2="107.596" gradientUnits="userSpaceOnUse">
<stop stop-color="#BF418C"/>
<stop offset="0.2641" stop-color="#CB4595"/>
<stop offset="0.7407" stop-color="#EB4FAC"/>
<stop offset="1" stop-color="#FF56BB"/>
</linearGradient>
<linearGradient id="paint8_linear_72_8770" x1="346.916" y1="397.178" x2="288.519" y2="302.155" gradientUnits="userSpaceOnUse">
<stop stop-color="#BF418C"/>
<stop offset="0.2641" stop-color="#CB4595"/>
<stop offset="0.7407" stop-color="#EB4FAC"/>
<stop offset="1" stop-color="#FF56BB"/>
</linearGradient>
<linearGradient id="paint9_linear_72_8770" x1="308.646" y1="334.986" x2="230.883" y2="208.45" gradientUnits="userSpaceOnUse">
<stop stop-color="#5B113D"/>
<stop offset="0.2951" stop-color="#6D1248"/>
<stop offset="0.9333" stop-color="#912364"/>
<stop offset="1" stop-color="#FF56BB"/>
</linearGradient>
<linearGradient id="paint10_linear_72_8770" x1="345.501" y1="395.027" x2="306.075" y2="330.872" gradientUnits="userSpaceOnUse">
<stop stop-color="#FF56BB"/>
<stop offset="0.5629" stop-color="#FF6CC4"/>
<stop offset="1" stop-color="#FF78C9"/>
</linearGradient>
<linearGradient id="paint11_linear_72_8770" x1="309.327" y1="336.019" x2="247.474" y2="235.372" gradientUnits="userSpaceOnUse">
<stop stop-color="#FFC9E9"/>
<stop offset="1" stop-color="white"/>
</linearGradient>
</defs>
</svg>
